<?xml version="1.0" encoding="UTF-8"?>
<!DOCTYPE svg PUBLIC "-//W3C//DTD SVG 1.1//EN" "http://www.w3.org/Graphics/SVG/1.1/DTD/svg11.dtd">
<!-- Creator: CorelDRAW X8 -->
<svg xmlns="http://www.w3.org/2000/svg" xml:space="preserve" width="132.464mm" height="62.751mm" version="1.1" style="shape-rendering:geometricPrecision; text-rendering:geometricPrecision; image-rendering:optimizeQuality; fill-rule:evenodd; clip-rule:evenodd"
viewBox="0 0 13246 6275"
 xmlns:xlink="http://www.w3.org/1999/xlink">

 <g id="Layer_x0020_1">
  <metadata id="CorelCorpID_0Corel-Layer"/>
  <g id="_2422404498176">
   <g>
    <polygon fill="#CCA34B" points="3138,0 4851,1713 1425,1713 "/>
    <polygon fill="#CCA34B" points="4851,1713 6275,3138 3426,3138 "/>
    <polygon fill="#CCA34B" points="3138,6275 1425,4562 4851,4562 "/>
    <polygon fill="#CCA34B" points="1425,4562 0,3138 2849,3138 "/>
   </g>
   <path class="#2B2A29" d="M7761 3767l0 82 0 37 164 0c0,-18 0,-36 0,-54 0,-39 -2,-110 -49,-153 -41,-37 -115,-41 -164,-41l-528 0c-53,0 -127,4 -168,43 -41,41 -45,115 -45,164l0 523c0,36 4,112 43,151 39,39 117,43 164,43l534 0c53,0 127,-4 168,-43 26,-27 45,-74 45,-141l0 -329 -458 0 0 119 294 0 0 265 -626 0 0 -666 626 0zm541 -129l0 924 164 0 0 -364 310 0 346 364 219 0 -371 -370 103 0c43,0 104,-2 147,-51 33,-37 35,-88 35,-119l0 -216c0,-25 -2,-86 -39,-125 -39,-41 -106,-43 -137,-43l-777 0zm701 129c20,0 49,0 67,16 23,19 25,47 25,72l0 136c0,21 -4,45 -19,60 -18,18 -51,18 -67,18l-543 0 0 -302 537 0zm629 601c0,41 4,114 45,153 35,33 98,41 168,41l528 0c53,0 127,-4 168,-43 40,-41 45,-110 45,-162l0 -512c0,-52 -5,-121 -43,-162 -41,-41 -113,-45 -170,-45l-538 0c-41,0 -117,4 -158,43 -41,41 -45,115 -45,164l0 523zm164 65l0 -666 626 0 0 666 -626 0zm1330 -795l-164 0 0 719c0,52 4,121 45,162 41,39 115,43 168,43l528 0c51,0 131,-4 170,-43 39,-39 43,-113 43,-162l0 -719 -164 0 0 795 -626 0 0 -795zm1167 0l0 924 164 0 0 -368 605 0c121,0 184,-36 184,-166l0 -222c0,-129 -63,-168 -184,-168l-769 0zm697 129c61,0 99,14 99,82l0 134c0,68 -37,82 -99,82l-533 0 0 -298 533 0z"/>
   <g>
    <polygon class="#2B2A29" points="12001,3137 12001,1815 13246,1815 13246,2042 12267,2042 12267,2373 12837,2373 12837,2579 12267,2579 12267,2911 13246,2911 13246,3137 "/>
    <polygon class="#2B2A29" points="6971,3137 6971,3006 7833,2042 6971,2042 6971,2030 6971,1960 6971,1815 8266,1815 8266,1935 7381,2911 8266,2911 8266,3137 "/>
    <path class="#2B2A29" d="M11078 3138c365,0 661,-297 661,-662 0,-365 -296,-661 -661,-661l0 0c-268,0 -536,0 -804,0l0 1322c268,0 536,0 804,0l0 1zm-538 -239l0 -857 0 -12 538 0c246,0 402,200 402,446 0,247 -156,435 -402,435l-538 0 0 -12z"/>
    <path class="#2B2A29" d="M8719 3137l-265 0 683 -1322 125 0 125 0 683 1322 -265 0 -169 -328 -374 0 -373 0 -170 328zm543 -1051l-267 518 267 0 267 0 -267 -518z"/>
   </g>
  </g>
 </g>
</svg>
