<?xml version="1.0" encoding="UTF-8"?>
<svg width="700pt" height="700pt" version="1.1" viewBox="0 0 700 700" xmlns="http://www.w3.org/2000/svg" fill="#cda24b" xmlns:xlink="http://www.w3.org/1999/xlink">
 <g>
  <path d="m412.72 358.96c-3.3594 0-5.6016 2.2383-5.6016 5.6016v8.3984c0 3.3594 2.2383 5.6016 5.6016 5.6016 3.3594 0 5.6016-2.2383 5.6016-5.6016v-8.3984c0-2.8008-2.8008-5.6016-5.6016-5.6016z"/>
  <path d="m444.64 358.96c-3.3594 0-5.6016 2.2383-5.6016 5.6016v8.3984c0 3.3594 2.2383 5.6016 5.6016 5.6016 3.3594 0 5.6016-2.2383 5.6016-5.6016v-8.3984c-0.003907-2.8008-2.8008-5.6016-5.6016-5.6016z"/>
  <path d="m476.56 358.96c-3.3594 0-5.6016 2.2383-5.6016 5.6016v8.3984c0 3.3594 2.2383 5.6016 5.6016 5.6016 3.3594 0 5.6016-2.2383 5.6016-5.6016v-8.3984c0-2.8008-2.8008-5.6016-5.6016-5.6016z"/>
  <path d="m412.72 315.84c3.3594 0 5.6016-2.2383 5.6016-5.6016v-38.641c0-3.3594-2.2383-5.6016-5.6016-5.6016-3.3594 0-5.6016 2.2383-5.6016 5.6016v38.641c0.003906 3.3633 2.2422 5.6016 5.6016 5.6016z"/>
  <path d="m444.64 315.84c3.3594 0 5.6016-2.2383 5.6016-5.6016v-38.641c0-3.3594-2.2383-5.6016-5.6016-5.6016-3.3594 0-5.6016 2.2383-5.6016 5.6016v38.641c0 3.3633 2.2422 5.6016 5.6016 5.6016z"/>
  <path d="m476.56 315.84c3.3594 0 5.6016-2.2383 5.6016-5.6016v-38.641c0-3.3594-2.2383-5.6016-5.6016-5.6016-3.3594 0-5.6016 2.2383-5.6016 5.6016v38.641c0.003907 3.3633 2.2422 5.6016 5.6016 5.6016z"/>
  <path d="m412.72 246.4c3.3594 0 5.6016-2.2383 5.6016-5.6016v-38.641c0-3.3594-2.2383-5.6016-5.6016-5.6016-3.3594 0-5.6016 2.2383-5.6016 5.6016l0.003906 38.645c0 2.8008 2.2383 5.5977 5.5977 5.5977z"/>
  <path d="m444.64 246.4c3.3594 0 5.6016-2.2383 5.6016-5.6016v-38.641c0-3.3594-2.2383-5.6016-5.6016-5.6016-3.3594 0-5.6016 2.2383-5.6016 5.6016v38.645c0 2.8008 2.2422 5.5977 5.6016 5.5977z"/>
  <path d="m476.56 246.4c3.3594 0 5.6016-2.2383 5.6016-5.6016v-38.641c0-3.3594-2.2383-5.6016-5.6016-5.6016-3.3594 0-5.6016 2.2383-5.6016 5.6016l0.003907 38.645c0 2.8008 2.2383 5.5977 5.5977 5.5977z"/>
  <path d="m412.72 176.96c3.3594 0 5.6016-2.2383 5.6016-5.6016v-38.641c0-3.3594-2.2383-5.6016-5.6016-5.6016-3.3594 0-5.6016 2.2383-5.6016 5.6016v38.641c0.003906 2.8008 2.2422 5.6016 5.6016 5.6016z"/>
  <path d="m444.64 176.96c3.3594 0 5.6016-2.2383 5.6016-5.6016v-38.641c0-3.3594-2.2383-5.6016-5.6016-5.6016-3.3594 0-5.6016 2.2383-5.6016 5.6016v38.641c0 2.8008 2.2422 5.6016 5.6016 5.6016z"/>
  <path d="m476.56 176.96c3.3594 0 5.6016-2.2383 5.6016-5.6016v-38.641c0-3.3594-2.2383-5.6016-5.6016-5.6016-3.3594 0-5.6016 2.2383-5.6016 5.6016v38.641c0.003907 2.8008 2.2422 5.6016 5.6016 5.6016z"/>
  <path d="m523.04 467.04h-16.238v-364c0-3.3594-2.2383-5.6016-5.6016-5.6016l-115.92 0.003906c-3.3594 0-5.6016 2.2383-5.6016 5.6016v364h-24.641v-56h9.5195c3.3594 0 5.6016-2.2383 5.6016-5.6016 0-3.3594-2.2383-5.6016-5.6016-5.6016h-9.5195v-56h9.5195c3.3594 0 5.6016-2.2383 5.6016-5.6016 0-3.3594-2.2383-5.6016-5.6016-5.6016h-9.5195v-56h9.5195c3.3594 0 5.6016-2.2383 5.6016-5.6016 0-3.3594-2.2383-5.6016-5.6016-5.6016h-9.5195v-56h9.5195c3.3594 0 5.6016-2.2383 5.6016-5.6016 0-3.3594-2.2383-5.6016-5.6016-5.6016h-9.5195v-65.512c0-3.3594-2.2383-5.6016-5.6016-5.6016l-142.24 0.003906c-3.3594 0-5.6016 2.2383-5.6016 5.6016v66.078h-9.5195c-3.3594 0-5.6016 2.2383-5.6016 5.6016 0 3.3594 2.2383 5.6016 5.6016 5.6016h9.5195v56h-9.5195c-3.3594 0-5.6016 2.2383-5.6016 5.6016 0 3.3594 2.2383 5.6016 5.6016 5.6016h9.5195v56h-9.5195c-3.3594 0-5.6016 2.2383-5.6016 5.6016 0 3.3594 2.2383 5.6016 5.6016 5.6016h9.5195v56h-9.5195c-3.3594 0-5.6016 2.2383-5.6016 5.6016 0 3.3594 2.2383 5.6016 5.6016 5.6016h9.5195v56h-20.16c-3.3594 0-5.6016 2.2383-5.6016 5.6016 0 3.3594 2.2383 5.6016 5.6016 5.6016h341.04c3.3594 0 5.6016-2.2383 5.6016-5.6016 0-3.375-2.2383-6.1758-5.0391-6.1758zm-132.16-124.32h104.72v47.602h-104.72zm104.72-234.08v222.88h-104.72v-222.88zm-104.72 292.88h104.72v65.52h-52.078v-40.879c0-3.3594-2.2383-5.6016-5.6016-5.6016h-29.121c-3.3594 0-5.6016 2.2383-5.6016 5.6016v40.879h-11.762l0.003906-65.52zm41.441 65.52h-17.922v-35.281h17.922zm-219.52-328.72h131.04v60.48h-77.281v-42c0-3.3594-2.2383-5.6016-5.6016-5.6016h-29.121c-3.3594 0-5.6016 2.2383-5.6016 5.6016v42h-12.879l0.003906-60.48zm42.559 59.918h-17.922v-36.398h17.922zm-42.559 11.203h131.04v56h-77.281v-42c0-3.3594-2.2383-5.6016-5.6016-5.6016h-29.121c-3.3594 0-5.6016 2.2383-5.6016 5.6016v42h-12.879l0.003906-56zm42.559 56h-17.922v-36.398h17.922zm-42.559 11.199h131.04v56h-77.281v-42c0-3.3594-2.2383-5.6016-5.6016-5.6016h-29.121c-3.3594 0-5.6016 2.2383-5.6016 5.6016v42h-12.879l0.003906-56zm42.559 56h-17.922v-36.398h17.922zm-42.559 11.199h131.04v56h-77.281v-42c0-3.3594-2.2383-5.6016-5.6016-5.6016h-29.121c-3.3594 0-5.6016 2.2383-5.6016 5.6016v42h-12.879l0.003906-56zm42.559 56h-17.922v-36.398h17.922zm-42.559 11.199h131.04v56h-77.281v-40.879c0-3.3594-2.2383-5.6016-5.6016-5.6016h-29.121c-3.3594 0-5.6016 2.2383-5.6016 5.6016v40.879h-12.879l0.003906-56zm42.559 56h-17.922v-35.281h17.922z"/>
  <path d="m290.64 455.28c3.3594 0 5.6016-2.2383 5.6016-5.6016v-20.16c0-3.3594-2.2383-5.6016-5.6016-5.6016-3.3594 0-5.6016 2.2383-5.6016 5.6016v20.16c0 2.8008 2.8008 5.6016 5.6016 5.6016z"/>
  <path d="m319.2 455.28c3.3594 0 5.6016-2.2383 5.6016-5.6016v-20.16c0-3.3594-2.2383-5.6016-5.6016-5.6016-3.3594 0-5.6016 2.2383-5.6016 5.6016v20.16c0.003906 2.8008 2.2422 5.6016 5.6016 5.6016z"/>
  <path d="m290.64 387.52c3.3594 0 5.6016-2.2383 5.6016-5.6016v-20.16c0-3.3594-2.2383-5.6016-5.6016-5.6016-3.3594 0-5.6016 2.2383-5.6016 5.6016v20.16c0 3.3633 2.8008 5.6016 5.6016 5.6016z"/>
  <path d="m319.2 387.52c3.3594 0 5.6016-2.2383 5.6016-5.6016v-20.16c0-3.3594-2.2383-5.6016-5.6016-5.6016-3.3594 0-5.6016 2.2383-5.6016 5.6016v20.16c0.003906 3.3633 2.2422 5.6016 5.6016 5.6016z"/>
  <path d="m290.64 320.32c3.3594 0 5.6016-2.2383 5.6016-5.6016v-20.16c0-3.3594-2.2383-5.6016-5.6016-5.6016-3.3594 0-5.6016 2.2383-5.6016 5.6016v20.16c0 2.8008 2.8008 5.6016 5.6016 5.6016z"/>
  <path d="m319.2 320.32c3.3594 0 5.6016-2.2383 5.6016-5.6016v-20.16c0-3.3594-2.2383-5.6016-5.6016-5.6016-3.3594 0-5.6016 2.2383-5.6016 5.6016v20.16c0.003906 2.8008 2.2422 5.6016 5.6016 5.6016z"/>
  <path d="m290.64 252.56c3.3594 0 5.6016-2.2383 5.6016-5.6016v-20.16c0-3.3594-2.2383-5.6016-5.6016-5.6016-3.3594 0-5.6016 2.2383-5.6016 5.6016v20.16c0 3.3633 2.8008 5.6016 5.6016 5.6016z"/>
  <path d="m319.2 252.56c3.3594 0 5.6016-2.2383 5.6016-5.6016v-20.16c0-3.3594-2.2383-5.6016-5.6016-5.6016-3.3594 0-5.6016 2.2383-5.6016 5.6016v20.16c0.003906 3.3633 2.2422 5.6016 5.6016 5.6016z"/>
  <path d="m290.64 184.8c3.3594 0 5.6016-2.2383 5.6016-5.6016v-20.16c0-3.3594-2.2383-5.6016-5.6016-5.6016-3.3594 0-5.6016 2.2383-5.6016 5.6016v20.16c0 3.3594 2.8008 5.6016 5.6016 5.6016z"/>
  <path d="m319.2 184.8c3.3594 0 5.6016-2.2383 5.6016-5.6016v-20.16c0-3.3594-2.2383-5.6016-5.6016-5.6016-3.3594 0-5.6016 2.2383-5.6016 5.6016l0.003906 20.16c0 3.3594 2.2383 5.6016 5.5977 5.6016z"/>
 </g>
</svg>
