<?xml version="1.0" encoding="UTF-8"?>
<svg width="700pt" height="700pt" version="1.1" viewBox="0 0 700 700" xmlns="http://www.w3.org/2000/svg" fill="#cda24b" xmlns:xlink="http://www.w3.org/1999/xlink">
 <g>
  <path d="m563.36 463.68h-14v-375.76c0-1.6797-1.1211-3.3594-2.2383-4.4805-1.6797-1.1211-3.3594-1.1211-5.0391-0.55859l-108.08 41.996c-2.2383 1.1211-3.3594 2.8008-3.3594 5.0391v333.2h-11.762l-22.398-62.719 3.918-90.16 15.68-86.801c0.55859-2.2383-0.55859-4.4805-2.8008-5.6016l-126-76.715c-1.6797-1.1211-3.9219-1.1211-5.6016 0-1.6797 1.1211-2.8008 2.8008-2.8008 5.0391v317.52h-13.441l0.003906-243.6c0-3.3594-2.2383-5.6016-5.6016-5.6016h-8.3984v-84c0-3.3594-2.2383-5.6016-5.6016-5.6016h-29.68v-39.762c0-3.3594-2.2383-5.6016-5.6016-5.6016-3.3594 0-5.6016 2.2383-5.6016 5.6016v39.762h-29.68c-3.3594 0-5.6016 2.2383-5.6016 5.6016v84h-7.2812c-3.3594 0-5.6016 2.2383-5.6016 5.6016v243.6h-13.992c-3.3594 0-5.6016 2.2383-5.6016 5.6016 0 3.3594 2.2383 5.6016 5.6016 5.6016h420.56c3.3594 0 5.6016-2.2383 5.6016-5.6016 0-3.3594-2.8008-5.6016-5.6016-5.6016zm-25.199-367.92v72.238l-96.32 38.078v-72.238zm-96.879 287.28v-164.64l96.32-38.078v283.36h-96.32zm-151.2-226.8 113.68 68.879-14.559 83.441v0.55859l-4.4805 91.84c0 0.55859 0 1.6797 0.55859 2.2383l21.84 59.922h-40.32v-28.559c0-12.32-10.078-22.398-22.398-22.398-12.32 0-22.398 10.078-22.398 22.398v28.559h-30.801v-306.88zm64.402 307.44h-22.961v-28.559c0-6.1602 5.0391-11.199 11.199-11.199s11.199 5.0391 11.199 11.199l0.003906 28.559zm-173.6-327.6h59.922v78.398l-59.922 0.003907zm-12.879 89.602h86.238v238h-86.238z"/>
  <path d="m364 285.6c3.3594 0 5.6016-2.2383 5.6016-5.6016v-18.48c0-3.3594-2.2383-5.6016-5.6016-5.6016-3.3594 0-5.6016 2.2383-5.6016 5.6016v18.48c0 3.3594 2.2422 5.6016 5.6016 5.6016z"/>
  <path d="m337.12 285.6c3.3594 0 5.6016-2.2383 5.6016-5.6016v-18.48c0-3.3594-2.2383-5.6016-5.6016-5.6016-3.3594 0-5.6016 2.2383-5.6016 5.6016v18.48c0 3.3594 2.8008 5.6016 5.6016 5.6016z"/>
  <path d="m310.8 255.92c-3.3594 0-5.6016 2.2383-5.6016 5.6016v18.477c0 3.3594 2.2383 5.6016 5.6016 5.6016 3.3594 0 5.6016-2.2383 5.6016-5.6016v-18.48c-0.003906-3.3594-2.8008-5.5977-5.6016-5.5977z"/>
  <path d="m364 333.76c3.3594 0 5.6016-2.2383 5.6016-5.6016v-18.48c0-3.3594-2.2383-5.6016-5.6016-5.6016-3.3594 0-5.6016 2.2383-5.6016 5.6016v18.48c0 3.3594 2.2422 5.6016 5.6016 5.6016z"/>
  <path d="m337.12 333.76c3.3594 0 5.6016-2.2383 5.6016-5.6016v-18.48c0-3.3594-2.2383-5.6016-5.6016-5.6016-3.3594 0-5.6016 2.2383-5.6016 5.6016v18.48c0 3.3594 2.8008 5.6016 5.6016 5.6016z"/>
  <path d="m310.8 304.08c-3.3594 0-5.6016 2.2383-5.6016 5.6016v18.48c0 3.3594 2.2383 5.6016 5.6016 5.6016 3.3594 0 5.6016-2.2383 5.6016-5.6016v-18.48c-0.003906-2.8008-2.8008-5.6016-5.6016-5.6016z"/>
  <path d="m364 382.48c3.3594 0 5.6016-2.2383 5.6016-5.6016v-18.48c0-3.3594-2.2383-5.6016-5.6016-5.6016-3.3594 0-5.6016 2.2383-5.6016 5.6016v18.48c0 2.8008 2.2422 5.6016 5.6016 5.6016z"/>
  <path d="m337.12 382.48c3.3594 0 5.6016-2.2383 5.6016-5.6016v-18.48c0-3.3594-2.2383-5.6016-5.6016-5.6016-3.3594 0-5.6016 2.2383-5.6016 5.6016v18.48c0 2.8008 2.8008 5.6016 5.6016 5.6016z"/>
  <path d="m310.8 352.24c-3.3594 0-5.6016 2.2383-5.6016 5.6016v18.48c0 3.3594 2.2383 5.6016 5.6016 5.6016 3.3594 0 5.6016-2.2383 5.6016-5.6016v-18.48c-0.003906-2.8008-2.8008-5.6016-5.6016-5.6016z"/>
  <path d="m234.64 314.16c-3.3594 0-5.6016 2.2383-5.6016 5.6016v43.68c0 3.3594 2.2383 5.6016 5.6016 5.6016 3.3594 0 5.6016-2.2383 5.6016-5.6016v-43.68c-0.003907-3.3633-2.8008-5.6016-5.6016-5.6016z"/>
  <path d="m211.12 314.16c-3.3594 0-5.6016 2.2383-5.6016 5.6016v43.68c0 3.3594 2.2383 5.6016 5.6016 5.6016 3.3594 0 5.6016-2.2383 5.6016-5.6016v-43.68c-0.003906-3.3633-2.2422-5.6016-5.6016-5.6016z"/>
  <path d="m188.16 314.16c-3.3594 0-5.6016 2.2383-5.6016 5.6016v43.68c0 3.3594 2.2383 5.6016 5.6016 5.6016 3.3594 0 5.6016-2.2383 5.6016-5.6016v-43.68c0-3.3633-2.8008-5.6016-5.6016-5.6016z"/>
  <path d="m234.64 244.16c-3.3594 0-5.6016 2.2383-5.6016 5.6016v43.68c0 3.3594 2.2383 5.6016 5.6016 5.6016 3.3594 0 5.6016-2.2383 5.6016-5.6016v-43.68c-0.003907-3.3633-2.8008-5.6016-5.6016-5.6016z"/>
  <path d="m211.12 244.16c-3.3594 0-5.6016 2.2383-5.6016 5.6016v43.68c0 3.3594 2.2383 5.6016 5.6016 5.6016 3.3594 0 5.6016-2.2383 5.6016-5.6016v-43.68c-0.003906-3.3633-2.2422-5.6016-5.6016-5.6016z"/>
  <path d="m188.16 244.16c-3.3594 0-5.6016 2.2383-5.6016 5.6016v43.68c0 3.3594 2.2383 5.6016 5.6016 5.6016 3.3594 0 5.6016-2.2383 5.6016-5.6016v-43.68c0-3.3633-2.8008-5.6016-5.6016-5.6016z"/>
  <path d="m234.64 382.48c-3.3594 0-5.6016 2.2383-5.6016 5.6016v43.68c0 3.3594 2.2383 5.6016 5.6016 5.6016 3.3594 0 5.6016-2.2383 5.6016-5.6016v-43.68c-0.003907-2.8008-2.8008-5.6016-5.6016-5.6016z"/>
  <path d="m211.12 382.48c-3.3594 0-5.6016 2.2383-5.6016 5.6016v43.68c0 3.3594 2.2383 5.6016 5.6016 5.6016 3.3594 0 5.6016-2.2383 5.6016-5.6016v-43.68c-0.003906-2.8008-2.2422-5.6016-5.6016-5.6016z"/>
  <path d="m188.16 382.48c-3.3594 0-5.6016 2.2383-5.6016 5.6016v43.68c0 3.3594 2.2383 5.6016 5.6016 5.6016 3.3594 0 5.6016-2.2383 5.6016-5.6016v-43.68c0-2.8008-2.8008-5.6016-5.6016-5.6016z"/>
  <path d="m512.96 314.16c-3.3594 0-5.6016 2.2383-5.6016 5.6016v43.68c0 3.3594 2.2383 5.6016 5.6016 5.6016 3.3594 0 5.6016-2.2383 5.6016-5.6016v-43.68c-0.003906-3.3633-2.8008-5.6016-5.6016-5.6016z"/>
  <path d="m489.44 314.16c-3.3594 0-5.6016 2.2383-5.6016 5.6016v43.68c0 3.3594 2.2383 5.6016 5.6016 5.6016 3.3594 0 5.6016-2.2383 5.6016-5.6016v-43.68c-0.003907-3.3633-2.2422-5.6016-5.6016-5.6016z"/>
  <path d="m466.48 314.16c-3.3594 0-5.6016 2.2383-5.6016 5.6016v43.68c0 3.3594 2.2383 5.6016 5.6016 5.6016 3.3594 0 5.6016-2.2383 5.6016-5.6016v-43.68c-0.003906-3.3633-2.2422-5.6016-5.6016-5.6016z"/>
  <path d="m512.96 244.16c-3.3594 0-5.6016 2.2383-5.6016 5.6016v43.68c0 3.3594 2.2383 5.6016 5.6016 5.6016 3.3594 0 5.6016-2.2383 5.6016-5.6016v-43.68c-0.003906-3.3633-2.8008-5.6016-5.6016-5.6016z"/>
  <path d="m489.44 244.16c-3.3594 0-5.6016 2.2383-5.6016 5.6016v43.68c0 3.3594 2.2383 5.6016 5.6016 5.6016 3.3594 0 5.6016-2.2383 5.6016-5.6016v-43.68c-0.003907-3.3633-2.2422-5.6016-5.6016-5.6016z"/>
  <path d="m466.48 244.16c-3.3594 0-5.6016 2.2383-5.6016 5.6016v43.68c0 3.3594 2.2383 5.6016 5.6016 5.6016 3.3594 0 5.6016-2.2383 5.6016-5.6016v-43.68c-0.003906-3.3633-2.2422-5.6016-5.6016-5.6016z"/>
  <path d="m512.96 382.48c-3.3594 0-5.6016 2.2383-5.6016 5.6016v43.68c0 3.3594 2.2383 5.6016 5.6016 5.6016 3.3594 0 5.6016-2.2383 5.6016-5.6016v-43.68c-0.003906-2.8008-2.8008-5.6016-5.6016-5.6016z"/>
  <path d="m489.44 382.48c-3.3594 0-5.6016 2.2383-5.6016 5.6016v43.68c0 3.3594 2.2383 5.6016 5.6016 5.6016 3.3594 0 5.6016-2.2383 5.6016-5.6016v-43.68c-0.003907-2.8008-2.2422-5.6016-5.6016-5.6016z"/>
  <path d="m466.48 382.48c-3.3594 0-5.6016 2.2383-5.6016 5.6016v43.68c0 3.3594 2.2383 5.6016 5.6016 5.6016 3.3594 0 5.6016-2.2383 5.6016-5.6016v-43.68c-0.003906-2.8008-2.2422-5.6016-5.6016-5.6016z"/>
  
 </g>
</svg>
