<?xml version="1.0" encoding="UTF-8"?>
<svg width="700pt" height="700pt" version="1.1" viewBox="0 0 700 700" xmlns="http://www.w3.org/2000/svg" xmlns:xlink="http://www.w3.org/1999/xlink">
 
 <g>
  <path d="m416.64 276.08c3.3594 0 5.6016-2.2383 5.6016-5.6016v-9.5195c0-3.3594-2.2383-5.6016-5.6016-5.6016-3.3594 0-5.6016 2.2383-5.6016 5.6016v9.5195c0 3.3633 2.8008 5.6016 5.6016 5.6016z"/>
  <path d="m443.52 276.08c3.3594 0 5.6016-2.2383 5.6016-5.6016v-9.5195c0-3.3594-2.2383-5.6016-5.6016-5.6016-3.3594 0-5.6016 2.2383-5.6016 5.6016v9.5195c0.003906 3.3633 2.2422 5.6016 5.6016 5.6016z"/>
  <path d="m470.4 276.08c3.3594 0 5.6016-2.2383 5.6016-5.6016v-9.5195c0-3.3594-2.2383-5.6016-5.6016-5.6016-3.3594 0-5.6016 2.2383-5.6016 5.6016v9.5195c0.003906 3.3633 2.2422 5.6016 5.6016 5.6016z"/>
  <path d="m416.64 314.72c3.3594 0 5.6016-2.2383 5.6016-5.6016v-9.5195c0-3.3594-2.2383-5.6016-5.6016-5.6016-3.3594 0-5.6016 2.2383-5.6016 5.6016v9.5195c0 3.3633 2.8008 5.6016 5.6016 5.6016z"/>
  <path d="m443.52 314.72c3.3594 0 5.6016-2.2383 5.6016-5.6016v-9.5195c0-3.3594-2.2383-5.6016-5.6016-5.6016-3.3594 0-5.6016 2.2383-5.6016 5.6016v9.5195c0.003906 3.3633 2.2422 5.6016 5.6016 5.6016z"/>
  <path d="m470.4 314.72c3.3594 0 5.6016-2.2383 5.6016-5.6016v-9.5195c0-3.3594-2.2383-5.6016-5.6016-5.6016-3.3594 0-5.6016 2.2383-5.6016 5.6016v9.5195c0.003906 3.3633 2.2422 5.6016 5.6016 5.6016z"/>
  <path d="m416.64 353.92c3.3594 0 5.6016-2.2383 5.6016-5.6016v-9.5195c0-3.3594-2.2383-5.6016-5.6016-5.6016-3.3594 0-5.6016 2.2383-5.6016 5.6016v9.5195c0 3.3594 2.8008 5.6016 5.6016 5.6016z"/>
  <path d="m443.52 353.92c3.3594 0 5.6016-2.2383 5.6016-5.6016v-9.5195c0-3.3594-2.2383-5.6016-5.6016-5.6016-3.3594 0-5.6016 2.2383-5.6016 5.6016v9.5195c0.003906 3.3594 2.2422 5.6016 5.6016 5.6016z"/>
  <path d="m470.4 353.92c3.3594 0 5.6016-2.2383 5.6016-5.6016v-9.5195c0-3.3594-2.2383-5.6016-5.6016-5.6016-3.3594 0-5.6016 2.2383-5.6016 5.6016v9.5195c0.003906 3.3594 2.2422 5.6016 5.6016 5.6016z"/>
  <path d="m416.64 393.12c3.3594 0 5.6016-2.2383 5.6016-5.6016v-9.5195c0-3.3594-2.2383-5.6016-5.6016-5.6016-3.3594 0-5.6016 2.2383-5.6016 5.6016v9.5195c0 2.8008 2.8008 5.6016 5.6016 5.6016z"/>
  <path d="m443.52 393.12c3.3594 0 5.6016-2.2383 5.6016-5.6016v-9.5195c0-3.3594-2.2383-5.6016-5.6016-5.6016-3.3594 0-5.6016 2.2383-5.6016 5.6016v9.5195c0.003906 2.8008 2.2422 5.6016 5.6016 5.6016z"/>
  <path d="m470.4 393.12c3.3594 0 5.6016-2.2383 5.6016-5.6016v-9.5195c0-3.3594-2.2383-5.6016-5.6016-5.6016-3.3594 0-5.6016 2.2383-5.6016 5.6016v9.5195c0.003906 2.8008 2.2422 5.6016 5.6016 5.6016z"/>
  <path d="m416.64 431.76c3.3594 0 5.6016-2.2383 5.6016-5.6016v-9.5195c0-3.3594-2.2383-5.6016-5.6016-5.6016-3.3594 0-5.6016 2.2383-5.6016 5.6016v9.5195c0 3.3594 2.8008 5.6016 5.6016 5.6016z"/>
  <path d="m443.52 431.76c3.3594 0 5.6016-2.2383 5.6016-5.6016v-9.5195c0-3.3594-2.2383-5.6016-5.6016-5.6016-3.3594 0-5.6016 2.2383-5.6016 5.6016v9.5195c0.003906 3.3594 2.2422 5.6016 5.6016 5.6016z"/>
  <path d="m470.4 431.76c3.3594 0 5.6016-2.2383 5.6016-5.6016v-9.5195c0-3.3594-2.2383-5.6016-5.6016-5.6016-3.3594 0-5.6016 2.2383-5.6016 5.6016v9.5195c0.003906 3.3594 2.2422 5.6016 5.6016 5.6016z"/>
  <path d="m243.6 255.36c-3.3594 0-5.6016 2.2383-5.6016 5.6016v9.5195c0 3.3594 2.2383 5.6016 5.6016 5.6016 3.3594 0 5.6016-2.2383 5.6016-5.6016v-9.5195c-0.003906-3.3594-2.8047-5.6016-5.6016-5.6016z"/>
  <path d="m269.92 255.36c-3.3594 0-5.6016 2.2383-5.6016 5.6016v9.5195c0 3.3594 2.2383 5.6016 5.6016 5.6016 3.3594 0 5.6016-2.2383 5.6016-5.6016v-9.5195c-0.003907-3.3594-2.2422-5.6016-5.6016-5.6016z"/>
  <path d="m296.8 255.36c-3.3594 0-5.6016 2.2383-5.6016 5.6016v9.5195c0 3.3594 2.2383 5.6016 5.6016 5.6016 3.3594 0 5.6016-2.2383 5.6016-5.6016v-9.5195c-0.003906-3.3594-2.8008-5.6016-5.6016-5.6016z"/>
  <path d="m243.6 294.56c-3.3594 0-5.6016 2.2383-5.6016 5.6016v9.5195c0 3.3594 2.2383 5.6016 5.6016 5.6016 3.3594 0 5.6016-2.2383 5.6016-5.6016v-9.5195c-0.003906-3.3594-2.8047-5.6016-5.6016-5.6016z"/>
  <path d="m269.92 294.56c-3.3594 0-5.6016 2.2383-5.6016 5.6016v9.5195c0 3.3594 2.2383 5.6016 5.6016 5.6016 3.3594 0 5.6016-2.2383 5.6016-5.6016v-9.5195c-0.003907-3.3594-2.2422-5.6016-5.6016-5.6016z"/>
  <path d="m296.8 294.56c-3.3594 0-5.6016 2.2383-5.6016 5.6016v9.5195c0 3.3594 2.2383 5.6016 5.6016 5.6016 3.3594 0 5.6016-2.2383 5.6016-5.6016v-9.5195c-0.003906-3.3594-2.8008-5.6016-5.6016-5.6016z"/>
  <path d="m243.6 333.2c-3.3594 0-5.6016 2.2383-5.6016 5.6016v9.5195c0 3.3594 2.2383 5.6016 5.6016 5.6016 3.3594 0 5.6016-2.2383 5.6016-5.6016v-9.5195c-0.003906-3.3594-2.8047-5.6016-5.6016-5.6016z"/>
  <path d="m269.92 333.2c-3.3594 0-5.6016 2.2383-5.6016 5.6016v9.5195c0 3.3594 2.2383 5.6016 5.6016 5.6016 3.3594 0 5.6016-2.2383 5.6016-5.6016v-9.5195c-0.003907-3.3594-2.2422-5.6016-5.6016-5.6016z"/>
  <path d="m296.8 333.2c-3.3594 0-5.6016 2.2383-5.6016 5.6016v9.5195c0 3.3594 2.2383 5.6016 5.6016 5.6016 3.3594 0 5.6016-2.2383 5.6016-5.6016v-9.5195c-0.003906-3.3594-2.8008-5.6016-5.6016-5.6016z"/>
  <path d="m243.6 372.4c-3.3594 0-5.6016 2.2383-5.6016 5.6016v9.5195c0 3.3594 2.2383 5.6016 5.6016 5.6016 3.3594 0 5.6016-2.2383 5.6016-5.6016v-9.5195c-0.003906-3.3594-2.8047-5.6016-5.6016-5.6016z"/>
  <path d="m269.92 372.4c-3.3594 0-5.6016 2.2383-5.6016 5.6016v9.5195c0 3.3594 2.2383 5.6016 5.6016 5.6016 3.3594 0 5.6016-2.2383 5.6016-5.6016v-9.5195c-0.003907-3.3594-2.2422-5.6016-5.6016-5.6016z"/>
  <path d="m296.8 372.4c-3.3594 0-5.6016 2.2383-5.6016 5.6016v9.5195c0 3.3594 2.2383 5.6016 5.6016 5.6016 3.3594 0 5.6016-2.2383 5.6016-5.6016v-9.5195c-0.003906-3.3594-2.8008-5.6016-5.6016-5.6016z"/>
  <path d="m243.6 411.04c-3.3594 0-5.6016 2.2383-5.6016 5.6016v9.5195c0 3.3594 2.2383 5.6016 5.6016 5.6016 3.3594 0 5.6016-2.2383 5.6016-5.6016v-9.5195c-0.003906-2.8008-2.8047-5.6016-5.6016-5.6016z"/>
  <path d="m269.92 411.04c-3.3594 0-5.6016 2.2383-5.6016 5.6016v9.5195c0 3.3594 2.2383 5.6016 5.6016 5.6016 3.3594 0 5.6016-2.2383 5.6016-5.6016v-9.5195c-0.003907-2.8008-2.2422-5.6016-5.6016-5.6016z"/>
  <path d="m296.8 411.04c-3.3594 0-5.6016 2.2383-5.6016 5.6016v9.5195c0 3.3594 2.2383 5.6016 5.6016 5.6016 3.3594 0 5.6016-2.2383 5.6016-5.6016v-9.5195c-0.003906-2.8008-2.8008-5.6016-5.6016-5.6016z"/>
  <path d="m382.48 81.199h-108.08c-3.3594 0-5.6016 2.2383-5.6016 5.6016v76.719l-28-10.078c-1.6797-0.55859-3.3594-0.55859-5.0391 0.55859-1.6797 1.1211-2.2383 2.8008-2.2383 4.4805v63.84h-22.398c-3.3594 0-5.6016 2.2383-5.6016 5.6016v239.12h-20.719c-3.3594 0-5.6016 2.2383-5.6016 5.6016 0 3.3594 2.2383 5.6016 5.6016 5.6016h341.04c3.3594 0 5.6016-2.2383 5.6016-5.6016 0-3.3594-2.2383-5.6016-5.6016-5.6016h-16.801v-229.6c0-2.2383-1.1211-3.9219-3.3594-5.0391l-7.8398-3.3594v-64.402c0-2.2383-1.1211-3.9219-3.3594-5.0391l-34.16-15.68c-1.6797-0.55859-3.9219-0.55859-5.6016 0.55859-1.6797 1.1211-2.8008 2.8008-2.8008 4.4805v59.359l-9.5195-4.4805v-64.398c0-2.2383-1.1211-3.9219-3.3594-5.0391l-34.16-15.68c-1.6797-0.55859-3.9219-0.55859-5.6016 0.55859-1.6797 1.1211-2.8008 2.8008-2.8008 4.4805v59.359l-9.5195-4.4805 0.003907-91.84c1.1172-2.8008-1.6797-5.6016-4.4805-5.6016zm-102.48 11.199h96.879v374.08h-41.441v-35.281h22.961c3.3594 0 5.6016-2.2383 5.6016-5.6016 0-3.3594-2.2383-5.6016-5.6016-5.6016h-22.961v-32.48h22.961c3.3594 0 5.6016-2.2383 5.6016-5.6016 0-3.3594-2.2383-5.6016-5.6016-5.6016h-22.961v-32.48h22.961c3.3594 0 5.6016-2.2383 5.6016-5.6016 0-3.3594-2.2383-5.6016-5.6016-5.6016h-22.961v-32.48h22.961c3.3594 0 5.6016-2.2383 5.6016-5.6016 0-3.3594-2.2383-5.6016-5.6016-5.6016h-22.961l0.003906-31.34h22.961c3.3594 0 5.6016-2.2383 5.6016-5.6016 0-3.3594-2.2383-5.6016-5.6016-5.6016h-22.961v-18.48c0-3.3594-2.2383-5.6016-5.6016-5.6016h-49.84zm-35.84 73.922 24.641 8.9609v47.039h-24.641zm-28 67.199h108.08v233.52h-108.08zm247.52-75.598 22.961 10.078v55.441l-22.961-10.078zm-54.879-25.203 22.961 10.078v56l-22.961-10.078zm89.039 108.08v226.24h-108.64v-275.52z"/>
  <path d="m296.8 126.56h61.602c3.3594 0 5.6016-2.2383 5.6016-5.6016 0-3.3594-2.2383-5.6016-5.6016-5.6016h-61.602c-3.3594 0-5.6016 2.2383-5.6016 5.6016s2.2422 5.6016 5.6016 5.6016z"/>
  <path d="m296.8 170.24h61.602c3.3594 0 5.6016-2.2383 5.6016-5.6016 0-3.3594-2.2383-5.6016-5.6016-5.6016h-61.602c-3.3594 0-5.6016 2.2383-5.6016 5.6016s2.2422 5.6016 5.6016 5.6016z"/>
  <path d="m296.8 213.92h61.602c3.3594 0 5.6016-2.2383 5.6016-5.6016 0-3.3594-2.2383-5.6016-5.6016-5.6016h-61.602c-3.3594 0-5.6016 2.2383-5.6016 5.6016 0 3.3594 2.2422 5.6016 5.6016 5.6016z"/>
 </g>
</svg>
