<?xml version="1.0" encoding="UTF-8"?>
<svg width="700pt" height="700pt" version="1.1" viewBox="0 0 700 700" xmlns="http://www.w3.org/2000/svg" xmlns:xlink="http://www.w3.org/1999/xlink">
 <defs>
  <symbol id="t" overflow="visible">
   <path d="m2.2188-0.125c-0.11719 0.054688-0.23438 0.09375-0.35938 0.125s-0.25781 0.046875-0.39062 0.046875c-0.39844 0-0.71484-0.10938-0.95312-0.32812-0.23047-0.22656-0.34375-0.53516-0.34375-0.92188 0-0.38281 0.11328-0.6875 0.34375-0.90625 0.23828-0.22656 0.55469-0.34375 0.95312-0.34375 0.13281 0 0.26562 0.015625 0.39062 0.046875 0.125 0.023438 0.24219 0.0625 0.35938 0.125v0.5c-0.11719-0.070312-0.23047-0.125-0.34375-0.15625-0.11719-0.039062-0.23047-0.0625-0.34375-0.0625-0.23047 0-0.40625 0.074219-0.53125 0.21875-0.125 0.13672-0.1875 0.32812-0.1875 0.57812s0.0625 0.44922 0.1875 0.59375c0.125 0.13672 0.30078 0.20312 0.53125 0.20312 0.11328 0 0.22656-0.015625 0.34375-0.046875 0.11328-0.039063 0.22656-0.097656 0.34375-0.17188z"/>
  </symbol>
  <symbol id="d" overflow="visible">
   <path d="m1.625-1.3125c-0.054688-0.03125-0.10547-0.050781-0.15625-0.0625-0.054688-0.007812-0.10156-0.015625-0.14062-0.015625-0.15625 0-0.27734 0.054687-0.35938 0.15625-0.074219 0.09375-0.10938 0.23047-0.10938 0.40625v0.82812h-0.57812v-1.8125h0.57812v0.29688c0.070313-0.11328 0.15625-0.19531 0.25-0.25 0.10156-0.0625 0.21875-0.09375 0.34375-0.09375 0.019531 0 0.039063 0.007813 0.0625 0.015625h0.10938z"/>
  </symbol>
  <symbol id="c" overflow="visible">
   <path d="m2.0938-0.90625v0.15625h-1.3594c0.007813 0.13672 0.054687 0.24219 0.14062 0.3125 0.082031 0.0625 0.20312 0.09375 0.35938 0.09375 0.125 0 0.25-0.015625 0.375-0.046875 0.125-0.039063 0.25391-0.097656 0.39062-0.17188v0.45312c-0.13672 0.054688-0.27344 0.089844-0.40625 0.10938-0.13672 0.03125-0.27734 0.046875-0.42188 0.046875-0.32422 0-0.57812-0.082031-0.76562-0.25-0.17969-0.16406-0.26562-0.39844-0.26562-0.70312 0-0.28906 0.085937-0.51953 0.26562-0.6875 0.17578-0.17578 0.42188-0.26562 0.73438-0.26562 0.28906 0 0.51953 0.089844 0.6875 0.26562 0.17578 0.16797 0.26562 0.39844 0.26562 0.6875zm-0.60938-0.20312c0-0.10156-0.03125-0.1875-0.09375-0.25-0.0625-0.070313-0.14844-0.10938-0.25-0.10938-0.11719 0-0.21094 0.03125-0.28125 0.09375-0.0625 0.0625-0.10547 0.15234-0.125 0.26562z"/>
  </symbol>
  <symbol id="l" overflow="visible">
   <path d="m1.0938-0.8125c-0.125 0-0.21875 0.023438-0.28125 0.0625-0.0625 0.042969-0.09375 0.10156-0.09375 0.17188 0 0.074219 0.023438 0.13281 0.078125 0.17188 0.050781 0.042969 0.11719 0.0625 0.20312 0.0625 0.11328 0 0.20703-0.035156 0.28125-0.10938 0.070312-0.082031 0.10938-0.17969 0.10938-0.29688v-0.0625zm0.875-0.21875v1.0312h-0.57812v-0.26562c-0.074219 0.10547-0.16406 0.18359-0.26562 0.23438-0.09375 0.050781-0.21094 0.078125-0.34375 0.078125-0.1875 0-0.34375-0.050781-0.46875-0.15625-0.11719-0.11328-0.17188-0.25781-0.17188-0.4375 0-0.20703 0.070313-0.35938 0.21875-0.45312 0.14453-0.10156 0.375-0.15625 0.6875-0.15625h0.34375v-0.046875c0-0.09375-0.039063-0.16016-0.10938-0.20312-0.074219-0.039062-0.1875-0.0625-0.34375-0.0625-0.11719 0-0.23047 0.015625-0.34375 0.046875-0.10547 0.023437-0.20312 0.054687-0.29688 0.09375v-0.4375c0.125-0.03125 0.25-0.050781 0.375-0.0625 0.125-0.019531 0.25-0.03125 0.375-0.03125 0.33203 0 0.56641 0.070313 0.70312 0.20312 0.14453 0.125 0.21875 0.33594 0.21875 0.625z"/>
  </symbol>
  <symbol id="b" overflow="visible">
   <path d="m0.90625-2.3281v0.51562h0.59375v0.42188h-0.59375v0.76562c0 0.085938 0.015625 0.14062 0.046875 0.17188 0.039063 0.023437 0.10938 0.03125 0.20312 0.03125h0.29688v0.42188h-0.5c-0.21875 0-0.38281-0.046875-0.48438-0.14062-0.09375-0.09375-0.14062-0.25391-0.14062-0.48438v-0.76562h-0.28125v-0.42188h0.28125v-0.51562z"/>
  </symbol>
  <symbol id="k" overflow="visible">
   <path d="m1.5156-1.5469v-0.96875h0.57812v2.5156h-0.57812v-0.26562c-0.085937 0.10547-0.17188 0.18359-0.26562 0.23438s-0.21094 0.078125-0.34375 0.078125c-0.21875 0-0.40234-0.085938-0.54688-0.26562-0.13672-0.17578-0.20312-0.40625-0.20312-0.6875s0.066406-0.50781 0.20312-0.6875c0.14453-0.17578 0.32812-0.26562 0.54688-0.26562 0.125 0 0.23438 0.027344 0.32812 0.078125 0.10156 0.054688 0.19531 0.13281 0.28125 0.23438zm-0.39062 1.1719c0.125 0 0.21875-0.039062 0.28125-0.125 0.070312-0.09375 0.10938-0.22656 0.10938-0.40625 0-0.16406-0.039063-0.29688-0.10938-0.39062-0.0625-0.09375-0.15625-0.14062-0.28125-0.14062s-0.21875 0.046875-0.28125 0.14062-0.09375 0.22656-0.09375 0.39062c0 0.17969 0.03125 0.3125 0.09375 0.40625 0.0625 0.085938 0.15625 0.125 0.28125 0.125z"/>
  </symbol>
  <symbol id="j" overflow="visible">
   <path d="m1.25-0.375c0.11328 0 0.20312-0.039062 0.26562-0.125 0.070313-0.09375 0.10938-0.22656 0.10938-0.40625 0-0.16406-0.039062-0.29688-0.10938-0.39062-0.0625-0.09375-0.15234-0.14062-0.26562-0.14062-0.125 0-0.22656 0.046875-0.29688 0.14062-0.0625 0.09375-0.09375 0.22656-0.09375 0.39062 0 0.17969 0.03125 0.3125 0.09375 0.40625 0.070313 0.085938 0.17188 0.125 0.29688 0.125zm-0.39062-1.1719c0.082031-0.10156 0.17188-0.17969 0.26562-0.23438 0.09375-0.050781 0.20312-0.078125 0.32812-0.078125 0.22656 0 0.41016 0.089844 0.54688 0.26562 0.14453 0.17969 0.21875 0.40625 0.21875 0.6875s-0.074219 0.51172-0.21875 0.6875c-0.13672 0.17969-0.32031 0.26562-0.54688 0.26562-0.125 0-0.23438-0.027344-0.32812-0.078125s-0.18359-0.12891-0.26562-0.23438v0.26562h-0.57812v-2.5156h0.57812z"/>
  </symbol>
  <symbol id="i" overflow="visible">
   <path d="m0.046875-1.8125h0.57812l0.48438 1.2344 0.40625-1.2344h0.57812l-0.75 1.9844c-0.085938 0.19531-0.17969 0.33594-0.28125 0.42188-0.09375 0.082031-0.22656 0.125-0.39062 0.125h-0.34375v-0.39062h0.1875c0.09375 0 0.16016-0.015625 0.20312-0.046875 0.050781-0.03125 0.085938-0.085938 0.10938-0.15625l0.015625-0.0625z"/>
  </symbol>
  <symbol id="f" overflow="visible">
   <path d="m0.29688-2.4219h1.0469c0.30078 0 0.53516 0.074219 0.70312 0.21875 0.16406 0.13672 0.25 0.32812 0.25 0.57812s-0.085937 0.44531-0.25 0.57812c-0.16797 0.13672-0.40234 0.20312-0.70312 0.20312h-0.42188v0.84375h-0.625zm0.625 0.45312v0.67188h0.34375c0.125 0 0.21875-0.023437 0.28125-0.078125 0.070313-0.0625 0.10938-0.14453 0.10938-0.25 0-0.10156-0.039062-0.1875-0.10938-0.25-0.0625-0.0625-0.15625-0.09375-0.28125-0.09375z"/>
  </symbol>
  <symbol id="e" overflow="visible">
   <path d="m0.26562-0.70312v-1.1094h0.57812v0.1875 0.375 0.28125 0.32812c0.007812 0.0625 0.023438 0.10547 0.046875 0.125 0.019531 0.042969 0.046875 0.074219 0.078125 0.09375 0.039062 0.023437 0.085938 0.03125 0.14062 0.03125 0.125 0 0.21875-0.046875 0.28125-0.14062 0.070313-0.09375 0.10938-0.22266 0.10938-0.39062v-0.89062h0.57812v1.8125h-0.57812v-0.26562c-0.085938 0.10547-0.17969 0.18359-0.28125 0.23438-0.09375 0.050781-0.19922 0.078125-0.3125 0.078125-0.21094 0-0.37109-0.0625-0.48438-0.1875-0.10547-0.13281-0.15625-0.32031-0.15625-0.5625z"/>
  </symbol>
  <symbol id="s" overflow="visible">
   <path d="m0.85938-0.26562v0.95312h-0.57812v-2.5h0.57812v0.26562c0.082031-0.10156 0.17188-0.17969 0.26562-0.23438 0.09375-0.050781 0.20312-0.078125 0.32812-0.078125 0.22656 0 0.41016 0.089844 0.54688 0.26562 0.14453 0.17969 0.21875 0.40625 0.21875 0.6875s-0.074219 0.51172-0.21875 0.6875c-0.13672 0.17969-0.32031 0.26562-0.54688 0.26562-0.125 0-0.23438-0.027344-0.32812-0.078125s-0.18359-0.12891-0.26562-0.23438zm0.39062-1.1719c-0.125 0-0.22656 0.046875-0.29688 0.14062-0.0625 0.09375-0.09375 0.22656-0.09375 0.39062 0 0.17969 0.03125 0.3125 0.09375 0.40625 0.070313 0.085938 0.17188 0.125 0.29688 0.125 0.11328 0 0.20312-0.039062 0.26562-0.125 0.070313-0.09375 0.10938-0.22656 0.10938-0.40625 0-0.16406-0.039062-0.29688-0.10938-0.39062-0.0625-0.09375-0.15234-0.14062-0.26562-0.14062z"/>
  </symbol>
  <symbol id="h" overflow="visible">
   <path d="m0.29688-2.4219h0.70312l0.875 1.6562v-1.6562h0.59375v2.4219h-0.70312l-0.875-1.6562v1.6562h-0.59375z"/>
  </symbol>
  <symbol id="r" overflow="visible">
   <path d="m1.5156-0.3125c-0.085937 0.10547-0.17188 0.18359-0.26562 0.23438-0.09375 0.054688-0.21094 0.078125-0.34375 0.078125-0.21875 0-0.40234-0.082031-0.54688-0.25-0.13672-0.17578-0.20312-0.39844-0.20312-0.67188 0-0.26953 0.066406-0.49219 0.20312-0.67188 0.14453-0.17578 0.32812-0.26562 0.54688-0.26562 0.13281 0 0.25 0.027344 0.34375 0.078125 0.09375 0.054688 0.17969 0.13281 0.26562 0.23438v-0.26562h0.57812v1.625c0 0.28906-0.09375 0.51562-0.28125 0.67188-0.17969 0.15625-0.44531 0.23438-0.79688 0.23438-0.11719 0-0.22656-0.011719-0.32812-0.03125-0.10547-0.023438-0.21094-0.046875-0.3125-0.078125v-0.45312c0.09375 0.0625 0.1875 0.10156 0.28125 0.125 0.10156 0.03125 0.20312 0.046875 0.29688 0.046875 0.19531 0 0.33594-0.042969 0.42188-0.125 0.09375-0.085937 0.14062-0.21094 0.14062-0.39062zm-0.39062-1.125c-0.11719 0-0.21094 0.046875-0.28125 0.14062-0.0625 0.085937-0.09375 0.21094-0.09375 0.375 0 0.16797 0.03125 0.29297 0.09375 0.375 0.0625 0.085937 0.15625 0.125 0.28125 0.125s0.21875-0.039063 0.28125-0.125c0.070312-0.09375 0.10938-0.21875 0.10938-0.375 0-0.16406-0.039063-0.28906-0.10938-0.375-0.0625-0.09375-0.15625-0.14062-0.28125-0.14062z"/>
  </symbol>
  <symbol id="a" overflow="visible">
   <path d="m1.1406-1.4375c-0.125 0-0.22656 0.046875-0.29688 0.14062-0.0625 0.085937-0.09375 0.21484-0.09375 0.39062 0 0.17969 0.03125 0.3125 0.09375 0.40625 0.070312 0.09375 0.17188 0.14062 0.29688 0.14062s0.21875-0.046875 0.28125-0.14062c0.070313-0.09375 0.10938-0.22656 0.10938-0.40625 0-0.17578-0.039062-0.30469-0.10938-0.39062-0.0625-0.09375-0.15625-0.14062-0.28125-0.14062zm0-0.42188c0.3125 0 0.55469 0.089844 0.73438 0.26562 0.17578 0.16797 0.26562 0.39844 0.26562 0.6875 0 0.30469-0.089844 0.53906-0.26562 0.70312-0.17969 0.16797-0.42188 0.25-0.73438 0.25s-0.55859-0.082031-0.73438-0.25c-0.17969-0.16406-0.26562-0.39844-0.26562-0.70312 0-0.28906 0.085937-0.51953 0.26562-0.6875 0.17578-0.17578 0.42188-0.26562 0.73438-0.26562z"/>
  </symbol>
  <symbol id="g" overflow="visible">
   <path d="m2.0938-1.1094v1.1094h-0.57812v-0.84375c0-0.15625-0.007813-0.25781-0.015625-0.3125 0-0.0625-0.011719-0.10938-0.03125-0.14062-0.023438-0.039063-0.054688-0.070313-0.09375-0.09375-0.042969-0.019531-0.085938-0.03125-0.125-0.03125-0.125 0-0.22656 0.046875-0.29688 0.14062-0.0625 0.09375-0.09375 0.22656-0.09375 0.39062v0.89062h-0.57812v-2.5156h0.57812v0.96875c0.082031-0.10156 0.17188-0.17969 0.26562-0.23438 0.10156-0.050781 0.21094-0.078125 0.32812-0.078125 0.21875 0 0.37891 0.070313 0.48438 0.20312 0.10156 0.125 0.15625 0.30859 0.15625 0.54688z"/>
  </symbol>
  <symbol id="q" overflow="visible">
   <path d="m1.4688-2.5156v0.375h-0.3125c-0.085938 0-0.14062 0.015625-0.17188 0.046875s-0.046875 0.085938-0.046875 0.15625v0.125h0.48438v0.42188h-0.48438v1.3906h-0.59375v-1.3906h-0.28125v-0.42188h0.28125v-0.125c0-0.19531 0.054688-0.34375 0.17188-0.4375 0.11328-0.09375 0.28516-0.14062 0.51562-0.14062z"/>
  </symbol>
  <symbol id="p" overflow="visible">
   <path d="m1.9531-1.5156c0.070313-0.10156 0.16016-0.1875 0.26562-0.25 0.10156-0.0625 0.21094-0.09375 0.32812-0.09375 0.20703 0 0.36328 0.070313 0.46875 0.20312 0.11328 0.125 0.17188 0.30859 0.17188 0.54688v1.1094h-0.57812v-0.9375-0.046875-0.0625c0-0.13281-0.023437-0.22656-0.0625-0.28125-0.03125-0.0625-0.089844-0.09375-0.17188-0.09375-0.11719 0-0.20312 0.046875-0.26562 0.14062-0.054687 0.09375-0.085937 0.22656-0.09375 0.39062v0.89062h-0.57812v-0.9375c0-0.20703-0.015625-0.33594-0.046875-0.39062-0.03125-0.0625-0.09375-0.09375-0.1875-0.09375-0.11719 0-0.20312 0.046875-0.26562 0.14062-0.054688 0.09375-0.078125 0.22656-0.078125 0.39062v0.89062h-0.57812v-1.8125h0.57812v0.26562c0.070313-0.10156 0.14844-0.17969 0.23438-0.23438 0.09375-0.050781 0.19531-0.078125 0.3125-0.078125 0.125 0 0.23438 0.03125 0.32812 0.09375s0.16406 0.14844 0.21875 0.25z"/>
  </symbol>
  <symbol id="o" overflow="visible">
   <path d="m2.0938-1.1094v1.1094h-0.57812v-0.84375c0-0.15625-0.007813-0.25781-0.015625-0.3125 0-0.0625-0.011719-0.10938-0.03125-0.14062-0.023438-0.039063-0.054688-0.070313-0.09375-0.09375-0.042969-0.019531-0.085938-0.03125-0.125-0.03125-0.125 0-0.22656 0.046875-0.29688 0.14062-0.0625 0.09375-0.09375 0.22656-0.09375 0.39062v0.89062h-0.57812v-1.8125h0.57812v0.26562c0.082031-0.10156 0.17188-0.17969 0.26562-0.23438 0.10156-0.050781 0.21094-0.078125 0.32812-0.078125 0.21875 0 0.37891 0.070313 0.48438 0.20312 0.10156 0.125 0.15625 0.30859 0.15625 0.54688z"/>
  </symbol>
  <symbol id="n" overflow="visible">
   <path d="m0.28125-1.8125h0.57812v1.7812c0 0.23828-0.058594 0.42188-0.17188 0.54688-0.11719 0.13281-0.28906 0.20312-0.51562 0.20312h-0.28125v-0.39062h0.09375c0.11328 0 0.19141-0.027344 0.23438-0.078125 0.039062-0.042969 0.0625-0.13672 0.0625-0.28125zm0-0.70312h0.57812v0.46875h-0.57812z"/>
  </symbol>
  <symbol id="m" overflow="visible">
   <path d="m1.7344-1.75v0.46875c-0.074219-0.050781-0.15234-0.085938-0.23438-0.10938-0.074219-0.03125-0.15234-0.046875-0.23438-0.046875-0.16797 0-0.29688 0.046875-0.39062 0.14062-0.085938 0.09375-0.125 0.22656-0.125 0.39062 0 0.16797 0.039062 0.30469 0.125 0.40625 0.09375 0.09375 0.22266 0.14062 0.39062 0.14062 0.082031 0 0.16406-0.015625 0.25-0.046875 0.082031-0.03125 0.15625-0.070312 0.21875-0.125v0.48438c-0.085937 0.03125-0.17188 0.050781-0.26562 0.0625-0.09375 0.019531-0.1875 0.03125-0.28125 0.03125-0.32422 0-0.57812-0.082031-0.76562-0.25-0.1875-0.16406-0.28125-0.39844-0.28125-0.70312 0-0.30078 0.09375-0.53516 0.28125-0.70312 0.1875-0.16406 0.44141-0.25 0.76562-0.25 0.09375 0 0.1875 0.011719 0.28125 0.03125 0.09375 0.011719 0.17969 0.039063 0.26562 0.078125z"/>
  </symbol>
 </defs>
 <g>
  <path d="m87.191 268.43c6.6133-1.9844 14.547-3.9688 21.816-5.9492 7.9336-1.9844 15.867-4.6289 24.461-6.6133 9.2578-2.6445 18.512-5.2891 27.77-7.9336 9.918-2.6445 19.836-5.2891 30.414-7.9336 5.9492 3.3047 11.238 5.9492 16.527 9.2578 5.9492 2.6445 11.238 5.9492 16.527 8.5938 4.6289 2.6445 9.2578 5.2891 13.883 7.9336 5.2891 1.9844 9.918 4.6289 13.883 7.2734v48.926 49.586 48.926 26.445-144.13-167.27c16.527-5.9492 32.398-11.902 49.586-17.852 17.852-6.6133 36.363-13.223 55.539-20.496 20.496 9.918 39.668 19.172 57.52 27.77 16.527 7.9336 32.398 15.207 46.941 22.48v152.73 146.78-78.676-99.172c13.883 6.6133 26.445 12.562 38.348 18.512 9.918 4.6289 19.836 9.918 29.09 13.883v24.461l5.9492-2.6445c3.3047-1.9844 7.2734-3.9688 11.238-5.9492 6.6133 1.3242 13.223 3.3047 19.836 5.2891s12.562 3.3047 18.512 5.2891c5.2891 1.3242 10.578 2.6445 15.867 3.9688 5.2891 1.3242 10.578 2.6445 15.207 3.9688v31.074 30.414 31.074 18.512h10.578v27.109h-554.05v-27.109h14.547v-39.668-46.281-46.281-46.281zm3.9688 178.51h8.5938v-5.9492c-2.6445 0-5.2891-0.66016-8.5938-0.66016v6.6133zm14.547 0h9.2578v-3.9688c-3.3047 0-6.6133-0.66016-9.2578-1.3242zm15.207 0h9.918v-1.9844c-3.3047-0.66016-6.6133-0.66016-9.918-1.3242zm16.527 0h7.2734l-7.2734-1.3242zm37.688 0h10.578v-8.5938c-3.9688-0.66016-7.9336-0.66016-11.902-1.3242v9.2578zm81.984 0h3.3047v-146.78-160c-1.3242 0-1.9844 0.66016-3.3047 0.66016v160zm9.2578 0h3.3047v-148.1-161.98c-0.66016 0-1.9844 0.66016-3.3047 0.66016v161.98zm9.918 0h3.3047v-150.08-163.3c-1.3242 0-2.6445 0.66016-3.3047 0.66016v163.3zm9.2578 0h3.3047v-152.07-165.29c-0.66016 0.66016-1.9844 1.3242-3.3047 1.3242v164.63 151.41zm9.918 0h3.3047v-153.39-167.27c-0.66016 0.66016-1.9844 0.66016-3.3047 1.3242v166.61 152.73zm9.918 0h3.9688v-155.37-168.59c-1.3242 0-2.6445 0.66016-3.9688 0.66016v168.59zm10.578 0h3.3047v-157.36-170.58c-1.3242 0.66016-1.9844 0.66016-3.3047 1.3242v169.92 156.7zm10.578 0h3.3047v-159.34-172.56c-1.3242 0.66016-1.9844 1.3242-3.3047 1.3242v171.9zm10.578 0h3.9688v-161.32-173.88c-1.3242 0-2.6445 0.66016-3.9688 1.3242v173.22zm11.238 0h3.3047v-163.3-175.87c-1.3242 0-2.6445 0.66016-3.3047 1.3242v175.21 162.64zm115.7 0h7.2734v-3.3047c-1.9844 0-4.6289 0-7.2734 0.66016zm8.5938 0h6.6133v-3.9688c-1.9844 0-4.6289 0-6.6133 0.66016zm7.9336 0h5.9492v-5.2891c-1.9844 0.66016-3.9688 0.66016-5.9492 0.66016zm7.2734 0h5.9492v-5.9492c-1.9844 0.66016-3.9688 0.66016-5.9492 0.66016zm6.6133 0h5.9492v-6.6133c-1.9844 0.66016-3.9688 0.66016-5.9492 0.66016zm6.6133 0h4.6289v-7.2734l-4.6289 0.66016zm74.711 0h6.6133v-1.3242c-1.9844 0-4.6289 0.66016-6.6133 0.66016zm11.238 0h5.9492v-1.9844h-5.9492zm10.578 0h5.9492v-3.3047c-1.9844 0-3.9688 0.66016-5.9492 0.66016zm9.918 0h5.2891v-3.9688h-5.2891zm-49.586-7.2734h-7.9336v6.6133c2.6445 0 5.2891-0.66016 7.9336-0.66016v-5.9492zm24.461-1.9844c-1.9844 0-4.6289 0-6.6133 0.66016v5.9492c1.9844-0.66016 4.6289-0.66016 6.6133-0.66016v-5.9492zm10.578-0.66016h-5.9492v5.9492c1.9844 0 3.9688 0 5.9492-0.66016v-5.2891zm19.836-1.3242h-5.2891v5.2891h5.2891v-5.2891zm-54.875-5.2891c-2.6445 0.66016-5.2891 0.66016-7.9336 0.66016v6.6133c2.6445-0.66016 5.2891-0.66016 7.9336-0.66016v-6.6133zm12.562 0h-7.2734v5.9492h7.2734v-5.9492zm11.902-0.66016h-6.6133v5.9492c1.9844 0 4.6289 0 6.6133-0.66016v-5.2891zm10.578-0.66016h-5.9492v5.9492c1.9844 0 3.9688 0 5.9492-0.66016v-5.2891zm10.578-0.66016c-1.9844 0-3.9688 0.66016-5.9492 0.66016v5.2891c1.9844 0 3.9688 0 5.9492-0.66016v-5.2891zm9.2578 0h-5.2891v5.2891h5.2891v-5.2891zm-54.875-6.6133c-2.6445 0-5.2891 0.66016-7.9336 0.66016v5.9492h7.9336v-6.6133zm12.562 0h-7.2734v5.9492h7.2734v-5.9492zm11.902 0h-6.6133v5.9492c1.9844 0 4.6289-0.66016 6.6133-0.66016v-5.2891zm10.578-0.66016h-5.9492v5.9492h5.9492v-5.9492zm10.578 0h-5.9492v5.2891h5.9492v-5.2891zm-45.621-7.9336h-7.9336v6.6133h7.9336v-6.6133zm12.562 0h-7.2734v5.9492h7.2734v-5.9492zm11.902 0h-6.6133v5.9492h6.6133v-5.9492zm10.578 0h-5.9492v5.9492h5.9492v-5.9492zm19.836 0.66016c-1.9844 0-3.3047 0-5.2891-0.66016v5.9492c1.9844-0.66016 3.3047-0.66016 5.2891-0.66016v-4.6289zm-42.312-8.5938c-1.9844 0-4.6289-0.66016-7.2734-0.66016v6.6133h7.2734v-5.9492zm11.902 0h-6.6133v5.9492h6.6133v-5.9492zm10.578 0.66016c-1.9844 0-3.9688-0.66016-5.9492-0.66016v5.9492h5.9492v-5.2891zm10.578 0h-5.9492v5.2891h5.9492v-5.2891zm9.2578 0h-5.2891v5.2891h5.2891v-5.2891zm-54.875-9.918c-2.6445 0-5.2891 0-7.9336-0.66016v6.6133h7.9336v-5.9492zm12.562 0.66016c-1.9844 0-4.6289 0-7.2734-0.66016v6.6133h7.2734v-5.9492zm11.902 0.66016c-1.9844 0-4.6289 0-6.6133-0.66016v5.9492c1.9844 0 4.6289 0.66016 6.6133 0.66016v-5.9492zm10.578 0.66016c-1.9844 0-3.9688 0-5.9492-0.66016v5.9492h5.9492v-5.2891zm10.578 0.66016c-1.9844 0-3.9688-0.66016-5.9492-0.66016v5.9492h5.9492v-5.2891zm9.2578 0h-5.2891v5.2891h5.2891v-5.2891zm-54.875-11.238c-2.6445 0-5.2891-0.66016-7.9336-0.66016v5.9492c2.6445 0.66016 5.2891 0.66016 7.9336 0.66016v-5.9492zm12.562 0.66016c-1.9844 0-4.6289 0-7.2734-0.66016v6.6133h7.2734v-5.9492zm11.902 1.3242c-1.9844-0.66016-4.6289-0.66016-6.6133-0.66016v5.9492h6.6133v-5.2891zm21.156 1.3242h-5.9492v5.2891h5.9492v-5.2891zm9.2578 0.66016h-5.2891v5.2891h5.2891v-5.2891zm-54.875-12.562c-2.6445-0.66016-5.2891-0.66016-7.9336-1.3242v6.6133c2.6445 0 5.2891 0.66016 7.9336 0.66016v-5.9492zm12.562 1.3242c-1.9844-0.66016-4.6289-0.66016-7.2734-0.66016v5.9492c2.6445 0 5.2891 0 7.2734 0.66016v-5.9492zm11.902 1.3242c-1.9844-0.66016-4.6289-0.66016-6.6133-1.3242v5.9492c1.9844 0.66016 4.6289 0.66016 6.6133 0.66016v-5.2891zm10.578 0.66016c-1.9844 0-3.9688 0-5.9492-0.66016v5.9492c1.9844 0 3.9688 0 5.9492 0.66016v-5.9492zm10.578 1.3242c-1.9844 0-3.9688-0.66016-5.9492-0.66016v5.2891c1.9844 0.66016 3.9688 0.66016 5.9492 0.66016v-5.2891zm9.2578 0.66016c-1.9844 0-3.3047 0-5.2891-0.66016v5.9492h5.2891v-5.2891zm-54.875-13.883c-2.6445-0.66016-5.2891-0.66016-7.9336-1.3242v6.6133c2.6445 0 5.2891 0.66016 7.9336 0.66016v-5.9492zm12.562 1.3242c-1.9844 0-4.6289-0.66016-7.2734-0.66016v5.9492c2.6445 0 5.2891 0.66016 7.2734 0.66016v-5.9492zm11.902 1.3242c-1.9844 0-4.6289-0.66016-6.6133-0.66016v5.9492c1.9844 0 4.6289 0.66016 6.6133 0.66016v-5.9492zm21.156 2.6445c-1.9844 0-3.9688 0-5.9492-0.66016v5.9492c1.9844 0 3.9688 0 5.9492 0.66016v-5.9492zm-45.621-13.883c-2.6445-0.66016-5.2891-1.3242-7.9336-1.3242v5.9492c2.6445 0.66016 5.2891 0.66016 7.9336 1.3242v-5.9492zm12.562 1.3242c-1.9844 0-4.6289-0.66016-7.2734-0.66016v5.9492c2.6445 0 5.2891 0.66016 7.2734 0.66016v-5.9492zm11.902 1.9844c-1.9844 0-4.6289-0.66016-6.6133-0.66016v5.2891c1.9844 0.66016 4.6289 0.66016 6.6133 1.3242v-5.9492zm10.578 1.9844c-1.9844-0.66016-3.9688-0.66016-5.9492-1.3242v5.9492c1.9844 0 3.9688 0.66016 5.9492 0.66016v-5.2891zm10.578 1.3242c-1.9844 0-3.9688-0.66016-5.9492-0.66016v5.2891c1.9844 0 3.9688 0.66016 5.9492 0.66016v-5.2891zm9.2578 1.3242c-1.9844 0-3.3047-0.66016-5.2891-0.66016v5.2891c1.9844 0 3.3047 0.66016 5.2891 0.66016v-5.2891zm-54.875-17.191c-2.6445 0-5.2891-0.66016-7.9336-1.3242v6.6133c2.6445 0 5.2891 0.66016 7.9336 1.3242v-6.6133zm12.562 2.6445c-1.9844-0.66016-4.6289-1.3242-7.2734-1.3242v5.9492c2.6445 0.66016 5.2891 0.66016 7.2734 1.3242v-5.9492zm11.902 1.9844c-1.9844-0.66016-4.6289-0.66016-6.6133-1.3242v5.9492c1.9844 0.66016 4.6289 0.66016 6.6133 1.3242v-5.9492zm21.156 3.9688c-1.9844-0.66016-3.9688-0.66016-5.9492-1.3242v5.2891c1.9844 0.66016 3.9688 0.66016 5.9492 1.3242v-5.2891zm9.2578 1.3242c-1.9844 0-3.3047-0.66016-5.2891-0.66016v5.2891c1.9844 0 3.3047 0.66016 5.2891 0.66016v-5.2891zm-54.875-18.512c-2.6445-0.66016-5.2891-0.66016-7.9336-1.3242v5.9492c2.6445 0.66016 5.2891 1.3242 7.9336 1.9844v-6.6133zm12.562 2.6445c-1.9844-0.66016-4.6289-0.66016-7.2734-1.3242v5.9492c2.6445 0.66016 5.2891 1.3242 7.2734 1.3242v-5.9492zm11.902 2.6445c-1.9844-0.66016-4.6289-1.3242-6.6133-1.3242v5.9492c1.9844 0 4.6289 0.66016 6.6133 0.66016v-5.2891zm10.578 1.9844c-1.9844-0.66016-3.9688-0.66016-5.9492-1.3242v5.9492c1.9844 0 3.9688 0.66016 5.9492 1.3242v-5.9492zm10.578 1.9844c-1.9844 0-3.9688-0.66016-5.9492-1.3242v5.9492c1.9844 0 3.9688 0.66016 5.9492 0.66016v-5.2891zm9.2578 1.9844c-1.9844 0-3.3047-0.66016-5.2891-1.3242v5.9492c1.9844 0 3.3047 0.66016 5.2891 0.66016v-5.2891zm-42.312-16.527c-1.9844-0.66016-4.6289-1.3242-7.2734-1.9844v5.9492c2.6445 0.66016 5.2891 1.3242 7.2734 1.9844v-5.9492zm11.902 2.6445c-1.9844-0.66016-4.6289-1.3242-6.6133-1.9844v5.9492c1.9844 0.66016 4.6289 1.3242 6.6133 1.3242v-5.2891zm10.578 1.9844c-1.9844 0-3.9688-0.66016-5.9492-1.3242v5.9492c1.9844 0 3.9688 0.66016 5.9492 1.3242v-5.9492zm10.578 2.6445c-1.9844-0.66016-3.9688-0.66016-5.9492-1.3242v5.2891c1.9844 0.66016 3.9688 0.66016 5.9492 1.3242v-5.2891zm9.2578 1.9844c-1.9844 0-3.3047-0.66016-5.2891-1.3242v5.2891c1.9844 0.66016 3.3047 1.3242 5.2891 1.3242v-5.2891zm-54.875-21.156c-2.6445-0.66016-5.2891-1.3242-7.9336-1.9844v6.6133c2.6445 0.66016 5.2891 0.66016 7.9336 1.3242v-5.9492zm12.562 3.3047c-1.9844-0.66016-4.6289-1.3242-7.2734-1.9844v5.9492c2.6445 0.66016 5.2891 1.3242 7.2734 1.9844v-5.9492zm11.902 2.6445c-1.9844-0.66016-4.6289-0.66016-6.6133-1.3242v5.9492c1.9844 0 4.6289 0.66016 6.6133 1.3242v-5.9492zm21.156 5.2891c-1.9844 0-3.9688-0.66016-5.9492-1.3242v5.9492c1.9844 0 3.9688 0.66016 5.9492 1.3242v-5.9492zm9.2578 2.6445c-1.9844-0.66016-3.3047-0.66016-5.2891-1.3242v5.2891c1.9844 0.66016 3.3047 0.66016 5.2891 1.3242v-5.2891zm-360.33-215.54 104.46-39.008h1.3203l103.8 49.586v3.3047l-104.46-49.586-105.12 39.008v-3.3047zm0 5.2891 104.46-38.348 0.66016-0.66016 0.66016 0.66016 103.8 48.926v3.9688l-104.46-49.586-105.12 39.008v-3.9688zm253.22 208.93 0.66016-0.66016v-2.6445c-1.9844-0.66016-3.9688-1.3242-5.9492-1.3242 0.66016 1.9844 0.66016 4.6289 0.66016 7.2734l4.6289 1.3242zm1.3242-0.66016 2.6445-1.3242-2.6445-1.3242zm5.9492-3.3047 1.9844-1.3242 2.6445-1.3242v-1.3242c-1.3242-0.66016-3.3047-0.66016-4.6289-1.3242zm5.2891-3.3047h0.66016zm1.9844-0.66016 3.3047-1.3242v-4.6289c-1.9844-0.66016-3.3047-1.3242-5.2891-1.9844v7.2734l1.9844 0.66016zm3.9688-1.9844 0.66016-0.66016 3.3047-1.3242-3.9688-1.9844v3.9688zm-18.512 109.09v-7.2734l-4.6289 0.66016v7.2734zm0-8.5938v-7.2734h-4.6289v7.9336zm0-8.5938v-7.2734h-4.6289v7.2734zm0-8.5938v-7.9336h-4.6289v7.9336zm0-9.2578v-7.2734h-4.6289v7.2734zm0-8.5938v-7.2734l-4.6289-0.66016v7.9336zm0-8.5938v-7.2734l-4.6289-0.66016v7.2734zm0-8.5938v-7.2734c-1.3242-0.66016-3.3047-0.66016-4.6289-0.66016v7.2734zm0-8.5938v-7.2734l-4.6289-1.3242v7.9336l4.6289 0.66016zm0-8.5938v-7.2734l-4.6289-1.3242v7.2734zm0-8.5938v-7.2734l-4.6289-1.3242v7.2734c1.3242 0.66016 3.3047 0.66016 4.6289 1.3242zm-17.852 80.66c1.9844 0 3.9688 0 5.9492-0.66016v7.9336c-1.9844 0-3.9688 0.66016-5.9492 0.66016v-7.9336zm-15.207 1.3242c1.9844-0.66016 4.6289-0.66016 6.6133-0.66016v7.9336c-1.9844 0.66016-4.6289 0.66016-6.6133 0.66016v-7.9336zm-8.5938 0h7.2734v7.9336c-1.9844 0.66016-4.6289 0.66016-7.2734 1.3242v-9.2578zm30.414-11.238h5.9492v7.9336h-5.9492v-7.9336zm-6.6133 0.66016c1.9844 0 3.9688 0 5.9492-0.66016v7.9336c-1.9844 0-3.9688 0.66016-5.9492 0.66016v-7.9336zm-7.9336 0h6.6133v7.9336c-1.9844 0-3.9688 0-5.9492 0.66016 0-3.3047 0-5.9492-0.66016-8.5938zm-7.2734 0.66016c1.9844-0.66016 4.6289-0.66016 6.6133-0.66016v8.5938h-6.6133v-7.9336zm-8.5938 0h7.2734v7.9336c-1.9844 0.66016-4.6289 0.66016-7.2734 0.66016v-8.5938zm30.414-9.918h5.9492v7.2734h-5.9492v-7.2734zm-6.6133 0h5.9492v7.2734c-1.9844 0-3.9688 0-5.9492 0.66016v-7.9336zm-7.9336 0h6.6133v7.9336h-6.6133v-7.9336zm-7.2734 0c1.9844 0 4.6289-0.66016 6.6133 0v7.9336h-6.6133v-7.9336zm-8.5938-0.66016h7.2734v8.5938c-1.9844 0-4.6289 0-7.2734 0.66016v-9.2578zm30.414-8.5938h5.9492v7.2734h-5.9492v-7.2734zm-14.547-0.66016h6.6133v7.9336h-6.6133v-7.9336zm-7.2734 0h6.6133v7.9336h-6.6133v-7.9336zm-8.5938-0.66016h7.2734v8.5938h-7.2734v-8.5938zm30.414-7.9336c1.9844 0 3.9688 0 5.9492 0.66016v7.2734h-5.9492v-7.9336zm-7.2734-0.66016c2.6445 0 4.6289 0.66016 6.6133 0.66016v7.9336c-1.9844-0.66016-3.9688-0.66016-5.9492-0.66016-0.66016-2.6445-0.66016-5.2891-0.66016-7.9336zm-7.2734-0.66016c2.6445 0.66016 4.6289 0.66016 6.6133 0.66016v7.9336h-6.6133v-8.5938zm-7.2734 0h6.6133v8.5938c-1.9844 0-4.6289-0.66016-6.6133-0.66016v-7.9336zm-8.5938-0.66016c2.6445 0 5.2891 0 7.2734 0.66016v7.9336h-7.2734v-8.5938zm30.414-7.2734c1.9844 0.66016 3.9688 0.66016 5.9492 0.66016v7.9336c-1.9844-0.66016-3.9688-0.66016-5.9492-0.66016v-7.9336zm-7.2734-0.66016c2.6445 0 4.6289 0.66016 6.6133 0.66016v7.9336c-1.9844 0-3.9688-0.66016-6.6133-0.66016v-7.9336zm-7.2734-0.66016c2.6445 0 4.6289 0.66016 6.6133 0.66016v7.9336c-1.9844 0-3.9688-0.66016-6.6133-0.66016v-7.9336zm-7.2734-0.66016c1.9844 0 4.6289 0 6.6133 0.66016v7.9336c-1.9844 0-4.6289 0-6.6133-0.66016v-7.9336zm-8.5938-1.3242c2.6445 0.66016 5.2891 0.66016 7.2734 1.3242v7.9336c-1.9844 0-4.6289 0-7.2734-0.66016v-8.5938zm30.414-5.9492c1.9844 0.66016 3.9688 0.66016 5.9492 1.3242v7.2734c-1.9844 0-3.9688-0.66016-5.9492-0.66016v-7.9336zm-7.2734-0.66016c1.9844 0 4.6289 0.66016 6.6133 0.66016v7.9336c-1.9844 0-3.9688-0.66016-6.6133-0.66016v-7.9336zm-7.2734-0.66016c2.6445 0 4.6289 0 6.6133 0.66016v7.9336c-1.9844-0.66016-3.9688-0.66016-6.6133-0.66016v-7.9336zm-7.2734-1.3242c1.9844 0 4.6289 0.66016 6.6133 0.66016v8.5938c-1.9844-0.66016-4.6289-0.66016-6.6133-0.66016v-8.5938zm-8.5938-1.3242c2.6445 0.66016 5.2891 0.66016 7.2734 1.3242v7.9336c-1.9844 0-4.6289 0-7.2734-0.66016v-8.5938zm30.414-4.6289c1.9844 0 3.9688 0.66016 5.9492 0.66016v7.9336c-1.9844-0.66016-3.9688-0.66016-5.9492-1.3242v-7.2734zm-7.2734-1.3242c1.9844 0.66016 4.6289 0.66016 6.6133 1.3242v7.2734c-1.9844 0-4.6289-0.66016-6.6133-0.66016v-7.9336zm-14.547-2.6445c1.9844 0.66016 4.6289 0.66016 6.6133 1.3242v7.9336c-1.9844 0-4.6289-0.66016-6.6133-0.66016v-8.5938zm-8.5938-1.3242c2.6445 0.66016 5.2891 0.66016 7.2734 1.3242v7.9336c-1.9844 0-4.6289-0.66016-7.2734-0.66016v-8.5938zm30.414-3.9688c1.9844 0.66016 3.9688 0.66016 5.2891 1.3242 0.66016 2.6445 0.66016 5.2891 0.66016 7.2734-1.9844 0-3.9688-0.66016-5.9492-0.66016v-7.9336zm-7.2734-1.3242c1.9844 0.66016 3.9688 0.66016 5.9492 1.3242 0 2.6445 0.66016 5.2891 0.66016 7.9336-1.9844-0.66016-4.6289-1.3242-6.6133-1.3242v-7.9336zm-7.2734-1.3242c2.6445 0 4.6289 0.66016 6.6133 1.3242v7.9336c-1.9844-0.66016-3.9688-0.66016-6.6133-1.3242v-7.9336zm-7.2734-1.9844c1.9844 0.66016 3.9688 1.3242 6.6133 1.3242v8.5938c-1.9844-0.66016-4.6289-1.3242-6.6133-1.3242v-8.5938zm-8.5938-1.3242c2.6445 0.66016 5.2891 0.66016 7.2734 1.3242v8.5938c-1.9844-0.66016-4.6289-1.3242-7.2734-1.3242v-8.5938zm30.414-2.6445c1.9844 0 3.9688 0.66016 5.2891 1.3242v7.2734c-1.3242-0.66016-3.3047-0.66016-5.2891-1.3242v-7.2734zm-7.2734-1.9844c1.9844 0.66016 3.9688 1.3242 5.9492 1.3242v7.9336c-1.9844-0.66016-3.9688-0.66016-5.9492-1.3242v-7.9336zm-7.2734-1.9844c1.9844 0.66016 4.6289 1.3242 6.6133 1.9844v7.9336c-1.9844-0.66016-3.9688-1.3242-6.6133-1.3242v-8.5938zm-7.2734-1.3242c1.9844 0 3.9688 0.66016 6.6133 1.3242v7.9336c-2.6445 0-4.6289-0.66016-6.6133-1.3242v-7.9336zm-8.5938-1.9844c2.6445 0.66016 5.2891 0.66016 7.2734 1.3242v8.5938c-1.9844-0.66016-4.6289-1.3242-7.2734-1.3242v-8.5938zm30.414-1.9844c1.9844 0.66016 3.3047 1.3242 5.2891 1.3242v7.9336c-1.3242-0.66016-3.3047-1.3242-5.2891-1.3242v-7.9336zm-7.2734-1.9844c1.9844 0.66016 3.9688 1.3242 5.9492 1.9844v7.2734c-1.9844-0.66016-3.9688-0.66016-5.9492-1.3242v-7.9336zm-7.2734-1.9844c1.9844 0.66016 4.6289 1.3242 6.6133 1.9844v7.9336c-1.9844-0.66016-4.6289-1.3242-6.6133-1.9844v-7.9336zm-15.867-3.9688c2.6445 0.66016 5.2891 1.3242 7.2734 1.9844v7.9336c-1.9844-0.66016-4.6289-1.3242-7.2734-1.9844v-7.9336zm30.414-1.3242c1.9844 0.66016 3.3047 1.3242 5.2891 1.9844v7.2734c-1.9844 0-3.3047-0.66016-5.2891-1.3242v-7.9336zm-7.2734-1.9844c1.9844 0.66016 3.9688 1.3242 5.9492 1.9844v7.9336c-1.9844-0.66016-3.9688-1.3242-5.9492-1.9844v-7.9336zm-7.2734-1.9844c1.9844 0.66016 4.6289 1.3242 6.6133 1.9844v7.9336c-1.9844-0.66016-4.6289-1.3242-6.6133-1.9844v-7.9336zm-7.2734-2.6445c1.9844 0.66016 3.9688 1.3242 6.6133 1.9844v8.5938c-2.6445-0.66016-4.6289-1.3242-6.6133-1.9844v-8.5938zm-8.5938-1.9844c2.6445 0.66016 5.2891 1.3242 7.2734 1.9844v7.9336c-1.9844-0.66016-4.6289-1.3242-7.2734-1.9844v-7.9336zm36.363 1.9844c1.9844 0.66016 3.9688 1.3242 5.9492 1.9844v7.2734c-1.9844-0.66016-3.9688-1.3242-5.9492-1.3242v-7.9336zm-5.9492-1.9844c1.3242 0.66016 3.3047 1.3242 5.2891 1.9844v7.2734c-1.9844-0.66016-3.3047-1.3242-5.2891-1.9844v-7.2734zm-7.2734-2.6445c1.9844 0.66016 3.9688 1.9844 5.9492 2.6445v7.2734c-1.9844-0.66016-3.9688-1.3242-5.9492-1.9844v-7.9336zm-7.2734-1.9844c1.9844 0.66016 4.6289 1.3242 6.6133 1.9844v7.9336c-1.9844-0.66016-4.6289-1.3242-6.6133-1.9844v-7.9336zm-7.2734-2.6445c1.9844 0.66016 3.9688 1.3242 6.6133 1.9844v7.9336c-2.6445-0.66016-4.6289-1.3242-6.6133-1.9844v-7.9336zm-8.5938-2.6445c2.6445 0.66016 5.2891 1.3242 7.2734 1.9844v8.5938c-1.9844-0.66016-4.6289-1.9844-7.2734-2.6445v-7.9336zm48.926 7.9336c1.3242 0.66016 3.3047 1.3242 4.6289 1.9844v6.6133c-1.3242-0.66016-3.3047-0.66016-4.6289-1.3242v-7.2734zm-5.9492-1.9844c1.3242 0.66016 3.3047 1.3242 5.2891 1.9844v6.6133c-1.9844-0.66016-3.3047-0.66016-5.2891-1.3242v-7.2734zm-6.6133-2.6445c1.9844 0.66016 3.9688 1.3242 5.9492 1.9844v7.2734c-1.9844-0.66016-3.9688-1.3242-5.9492-1.9844v-7.2734zm-6.6133-2.6445c1.9844 1.3242 3.9688 1.9844 5.9492 2.6445v7.2734c-1.9844-0.66016-3.9688-1.3242-5.9492-1.9844v-7.9336zm-6.6133-1.9844c1.9844 0.66016 3.9688 1.3242 5.9492 1.9844v7.2734c-1.9844-0.66016-3.9688-1.3242-5.9492-1.9844v-7.2734zm-14.547-5.9492c1.9844 0.66016 3.9688 1.9844 6.6133 2.6445v7.9336c-2.6445-0.66016-4.6289-1.3242-6.6133-2.6445v-7.9336zm-8.5938-2.6445c2.6445 0.66016 5.2891 1.3242 7.2734 2.6445v7.9336c-1.9844-0.66016-4.6289-1.9844-7.2734-2.6445v-7.9336zm59.504 13.883c1.9844 0.66016 3.3047 1.3242 4.6289 1.9844v6.6133c-1.3242-0.66016-2.6445-1.3242-4.6289-1.3242v-7.2734zm-5.2891-1.9844c1.9844 0.66016 3.3047 1.3242 4.6289 1.9844 0 1.9844 0 4.6289 0.66016 6.6133-1.9844-0.66016-3.3047-1.3242-5.2891-1.9844v-6.6133zm-5.2891-1.9844c1.3242 0.66016 3.3047 1.3242 4.6289 1.9844v6.6133c-1.3242-0.66016-3.3047-1.3242-4.6289-1.9844v-6.6133zm-5.9492-2.6445c1.3242 0.66016 3.3047 1.3242 5.2891 1.9844v7.2734c-1.9844-0.66016-3.9688-1.3242-5.2891-1.9844v-7.2734zm-6.6133-2.6445c1.9844 0.66016 3.9688 1.3242 5.9492 1.9844v7.2734c-1.9844-0.66016-3.9688-1.3242-5.9492-1.9844v-7.2734zm-6.6133-2.6445c1.9844 0.66016 3.9688 1.3242 5.9492 2.6445v7.2734c-1.9844-0.66016-3.9688-1.3242-5.9492-2.6445v-7.2734zm-6.6133-2.6445c1.9844 0.66016 3.9688 1.3242 5.9492 2.6445v7.2734c-1.9844-0.66016-3.9688-1.3242-5.9492-2.6445v-7.2734zm-7.2734-3.3047c1.9844 1.3242 4.6289 1.9844 6.6133 2.6445v7.9336c-1.9844-0.66016-4.6289-1.3242-6.6133-2.6445v-7.9336zm-7.9336-2.6445c2.6445 0.66016 4.6289 1.3242 7.2734 2.6445v7.9336c-2.6445-0.66016-4.6289-1.9844-6.6133-2.6445 0-2.6445-0.66016-5.2891-0.66016-7.9336zm-7.9336-3.3047c2.6445 0.66016 5.2891 1.9844 7.2734 2.6445v7.9336c-1.9844-0.66016-4.6289-1.3242-7.2734-2.6445v-7.9336zm59.504 16.527c1.9844 0.66016 3.3047 1.3242 4.6289 1.9844v5.9492c-1.3242-0.66016-2.6445-0.66016-4.6289-1.3242v-6.6133zm-5.2891-2.6445c1.9844 0.66016 3.3047 1.3242 4.6289 1.9844v6.6133c-1.3242-0.66016-2.6445-1.3242-4.6289-1.9844v-6.6133zm-5.2891-2.6445c1.3242 0.66016 3.3047 1.3242 4.6289 1.9844v7.2734c-1.3242-0.66016-3.3047-1.3242-4.6289-1.9844v-7.2734zm-5.9492-2.6445c1.3242 0.66016 3.3047 1.3242 5.2891 2.6445v6.6133c-1.9844-0.66016-3.9688-1.3242-5.2891-1.9844v-7.2734zm-13.223-5.2891c1.9844 0.66016 3.9688 1.3242 5.9492 1.9844v7.9336c-1.9844-1.3242-3.9688-1.9844-5.9492-2.6445v-7.2734zm-6.6133-3.3047c1.9844 0.66016 3.9688 1.9844 5.9492 2.6445v7.2734c-1.9844-0.66016-3.9688-1.3242-5.9492-1.9844v-7.9336zm-7.2734-3.3047c1.9844 1.3242 3.9688 1.9844 6.6133 2.6445v7.9336c-1.9844-0.66016-4.6289-1.3242-6.6133-2.6445v-7.9336zm-7.9336-3.3047c2.6445 1.3242 4.6289 1.9844 7.2734 3.3047v7.9336c-2.6445-1.3242-4.6289-1.9844-7.2734-3.3047v-7.9336zm-7.9336-3.3047c2.6445 0.66016 5.2891 1.9844 7.2734 2.6445v8.5938c-1.9844-1.3242-4.6289-1.9844-7.2734-3.3047v-7.9336zm59.504 18.512c1.9844 0.66016 3.3047 1.3242 4.6289 1.9844v6.6133c-1.3242-0.66016-2.6445-1.3242-4.6289-1.9844v-6.6133zm-11.238-5.2891c1.9844 0.66016 3.9688 1.3242 5.2891 1.9844v7.2734c-1.3242-1.3242-3.3047-1.9844-4.6289-2.6445 0-1.9844 0-4.6289-0.66016-6.6133zm-5.2891-3.3047c1.3242 1.3242 3.3047 1.9844 4.6289 2.6445 0 2.6445 0 4.6289 0.66016 7.2734-1.9844-0.66016-3.9688-1.9844-5.2891-2.6445v-7.2734zm-6.6133-2.6445c1.9844 0.66016 3.9688 1.9844 5.2891 2.6445v7.2734c-1.3242-1.3242-3.3047-1.9844-5.2891-2.6445v-7.2734zm-6.6133-3.3047c1.9844 1.3242 3.9688 1.9844 5.9492 2.6445v7.2734c-1.9844-0.66016-3.9688-1.3242-5.9492-1.9844v-7.9336zm-6.6133-3.3047c1.9844 1.3242 3.9688 1.9844 5.9492 3.3047v7.2734c-1.9844-0.66016-3.9688-1.9844-5.9492-2.6445v-7.9336zm-7.2734-3.3047c1.9844 1.3242 3.9688 1.9844 6.6133 3.3047v7.2734c-2.6445-0.66016-4.6289-1.3242-6.6133-2.6445v-7.9336zm-7.9336-3.3047c2.6445 0.66016 4.6289 1.9844 7.2734 2.6445v7.9336c-2.6445-0.66016-4.6289-1.9844-7.2734-2.6445v-7.9336zm-7.9336-3.9688c2.6445 1.3242 4.6289 1.9844 7.2734 3.3047v7.9336c-1.9844-0.66016-4.6289-1.9844-7.2734-3.3047v-7.9336zm-309.42 161.32c3.9688 0.66016 7.9336 1.3242 11.238 1.3242v9.2578c-3.3047-0.66016-7.2734-0.66016-11.238-1.3242v-9.2578zm-17.191-1.3242c3.3047 0 6.6133 0.66016 10.578 0.66016v9.2578c-3.9688-0.66016-7.2734-0.66016-10.578-1.3242v-8.5938zm-16.527-1.9844c3.3047 0.66016 6.6133 0.66016 9.918 1.3242v8.5938c-3.3047-0.66016-6.6133-0.66016-9.918-1.3242v-8.5938zm-15.207-1.3242c2.6445 0.66016 5.9492 0.66016 9.2578 1.3242v7.9336c-3.3047 0-6.6133-0.66016-9.2578-0.66016v-8.5938zm-14.547-1.3242c3.3047 0.66016 5.9492 0.66016 8.5938 0.66016v8.5938c-2.6445-0.66016-5.2891-0.66016-8.5938-1.3242v-7.9336zm82.645-5.2891c3.9688 0.66016 7.9336 0.66016 11.902 1.3242v9.2578c-3.9688 0-7.9336-0.66016-11.902-0.66016v-9.918zm-36.363-1.9844c3.3047 0 6.6133 0 10.578 0.66016v8.5938c-3.9688 0-7.2734-0.66016-10.578-0.66016v-8.5938zm-16.527-1.3242c3.3047 0 6.6133 0 9.918 0.66016v8.5938c-3.3047-0.66016-6.6133-0.66016-9.918-1.3242v-7.9336zm-29.754-1.9844h8.5938v8.5938c-2.6445-0.66016-5.2891-0.66016-8.5938-1.3242v-7.2734zm82.645-7.2734c3.9688 0 7.9336 0 11.902 0.66016v9.2578c-3.9688 0-7.9336-0.66016-11.902-0.66016v-9.2578zm-19.172-1.3242c3.9688 0.66016 7.9336 0.66016 11.238 0.66016v9.2578c-3.3047 0-7.2734-0.66016-11.238-0.66016v-9.2578zm-17.191-0.66016c3.3047 0 6.6133 0.66016 10.578 0.66016v8.5938c-3.9688 0-7.2734 0-10.578-0.66016v-8.5938zm-16.527-0.66016c3.3047 0 6.6133 0 9.918 0.66016v8.5938c-3.3047-0.66016-6.6133-0.66016-9.918-0.66016v-8.5938zm-15.207-0.66016c2.6445 0 5.9492 0 9.2578 0.66016v7.9336c-3.3047 0-6.6133 0-9.2578-0.66016v-7.9336zm-14.547-0.66016c3.3047 0 5.9492 0 8.5938 0.66016v7.9336c-2.6445-0.66016-5.2891-0.66016-8.5938-0.66016v-7.9336zm82.645-9.2578h11.902v9.918c-3.9688 0-7.9336-0.66016-11.902-0.66016v-9.2578zm-19.172-0.66016c3.9688 0 7.9336 0.66016 11.238 0.66016v9.2578c-3.3047-0.66016-7.2734-0.66016-11.238-0.66016v-9.2578zm-17.191 0h10.578v9.2578c-3.9688-0.66016-7.2734-0.66016-10.578-0.66016v-8.5938zm-16.527-0.66016c3.3047 0 6.6133 0 9.918 0.66016v8.5938c-3.3047-0.66016-6.6133-0.66016-9.918-0.66016v-8.5938zm-15.207 0h9.2578v8.5938c-3.3047-0.66016-6.6133-0.66016-9.2578-0.66016v-7.9336zm68.098-11.902h11.902v9.918c-3.9688 0-7.9336-0.66016-11.902-0.66016v-9.2578zm-19.172 0h11.238v9.2578h-11.238v-9.2578zm-17.191 0h10.578v9.2578h-10.578v-9.2578zm-16.527 0.66016c3.3047-0.66016 6.6133-0.66016 9.918-0.66016v8.5938h-9.918v-7.9336zm-29.754 0h8.5938v7.9336h-8.5938v-7.9336zm63.473-13.223h11.238v9.2578h-11.238v-9.2578zm-17.191 0.66016h10.578v8.5938h-10.578v-8.5938zm-16.527 0.66016c3.3047 0 6.6133 0 9.918-0.66016v8.5938h-9.918v-7.9336zm-15.207 0h9.2578v8.5938h-9.2578v-8.5938zm-14.547 0.66016h8.5938v7.9336h-8.5938v-7.9336zm82.645-15.207c3.9688-0.66016 7.9336-0.66016 11.902-0.66016v9.2578c-3.9688 0-7.9336 0.66016-11.902 0.66016v-9.2578zm-19.172 0.66016c3.9688 0 7.9336 0 11.238-0.66016v9.2578c-3.3047 0-7.2734 0.66016-11.238 0.66016v-9.2578zm-17.191 1.3242c3.3047-0.66016 6.6133-0.66016 10.578-0.66016v8.5938c-3.9688 0-7.2734 0.66016-10.578 0.66016v-8.5938zm-16.527 0.66016c3.3047 0 6.6133 0 9.918-0.66016v8.5938c-3.3047 0-6.6133 0.66016-9.918 0.66016v-8.5938zm-15.207 0.66016h9.2578v7.9336c-3.3047 0-6.6133 0-9.2578 0.66016v-8.5938zm-14.547 0.66016h8.5938v7.9336h-8.5938v-7.9336zm82.645-17.191c3.9688 0 7.9336-0.66016 11.902-0.66016v9.2578c-3.9688 0-7.9336 0.66016-11.902 0.66016v-9.2578zm-19.172 1.3242c3.9688 0 7.9336-0.66016 11.238-0.66016v9.2578c-3.3047 0-7.2734 0.66016-11.238 0.66016v-9.2578zm-17.191 1.3242c3.3047 0 6.6133 0 10.578-0.66016v9.2578h-10.578v-8.5938zm-31.734 2.6445c2.6445 0 5.9492-0.66016 9.2578-0.66016v8.5938h-9.2578v-7.9336zm-14.547 1.3242c3.3047 0 5.9492-0.66016 8.5938-0.66016v7.9336c-2.6445 0-5.2891 0-8.5938 0.66016v-7.9336zm82.645-19.836c3.9688 0 7.9336-0.66016 11.902-1.3242v9.918c-3.9688 0-7.9336 0.66016-11.902 0.66016v-9.2578zm-19.172 1.9844c3.9688 0 7.9336-0.66016 11.238-1.3242v9.2578c-3.3047 0.66016-7.2734 0.66016-11.238 1.3242v-9.2578zm-17.191 1.9844c3.3047-0.66016 6.6133-0.66016 10.578-1.3242v9.2578c-3.9688 0-7.2734 0.66016-10.578 0.66016v-8.5938zm-16.527 1.9844c3.3047-0.66016 6.6133-0.66016 9.918-1.3242v8.5938c-3.3047 0-6.6133 0.66016-9.918 0.66016v-7.9336zm-15.207 1.3242c2.6445-0.66016 5.9492-0.66016 9.2578-0.66016v7.9336c-3.3047 0-6.6133 0.66016-9.2578 0.66016v-7.9336zm-14.547 1.3242c3.3047 0 5.9492-0.66016 8.5938-0.66016v7.9336c-2.6445 0-5.2891 0.66016-8.5938 0.66016v-7.9336zm82.645-21.816c3.9688 0 7.9336-0.66016 11.902-1.3242v9.918c-3.9688 0-7.9336 0.66016-11.902 1.3242v-9.918zm-19.172 2.6445c3.9688-0.66016 7.9336-0.66016 11.238-1.3242v9.2578c-3.3047 0.66016-7.2734 0.66016-11.238 1.3242v-9.2578zm-17.191 2.6445c3.3047-0.66016 6.6133-1.3242 10.578-1.3242v8.5938c-3.9688 0.66016-7.2734 0.66016-10.578 1.3242v-8.5938zm-31.734 3.9688c2.6445-0.66016 5.9492-0.66016 9.2578-1.3242v8.5938c-3.3047 0-6.6133 0.66016-9.2578 0.66016v-7.9336zm68.098-21.816c3.9688-0.66016 7.9336-1.3242 11.902-1.9844v9.2578c-3.9688 0.66016-7.9336 1.3242-11.902 1.9844v-9.2578zm-19.172 2.6445c3.9688-0.66016 7.9336-1.3242 11.238-1.9844v9.2578c-3.3047 0.66016-7.2734 1.3242-11.238 1.9844v-9.2578zm-17.191 2.6445c3.3047-0.66016 6.6133-0.66016 10.578-1.3242v8.5938c-3.9688 0.66016-7.2734 1.3242-10.578 1.3242v-8.5938zm-16.527 2.6445c3.3047-0.66016 6.6133-0.66016 9.918-1.3242v8.5938c-3.3047 0-6.6133 0.66016-9.918 1.3242v-8.5938zm-15.207 2.6445c2.6445-0.66016 5.9492-1.3242 9.2578-1.3242v7.9336c-3.3047 0.66016-6.6133 0.66016-9.2578 1.3242v-7.9336zm-14.547 1.9844c3.3047-0.66016 5.9492-0.66016 8.5938-1.3242v7.9336c-2.6445 0.66016-5.2891 0.66016-8.5938 1.3242v-7.9336zm82.645-25.785c3.9688-0.66016 7.9336-1.3242 11.902-1.9844v9.2578c-3.9688 0.66016-7.9336 1.3242-11.902 1.9844v-9.2578zm-19.172 3.3047c3.9688-0.66016 7.9336-1.3242 11.238-1.9844v9.2578c-3.3047 0.66016-7.2734 1.3242-11.238 1.9844v-9.2578zm-17.191 3.3047c3.3047-0.66016 6.6133-1.3242 10.578-1.9844v8.5938c-3.9688 0.66016-7.2734 1.3242-10.578 1.9844v-8.5938zm-31.734 5.2891c2.6445 0 5.9492-0.66016 9.2578-1.3242v8.5938c-3.3047 0-6.6133 0.66016-9.2578 1.3242v-8.5938zm-14.547 2.6445c3.3047 0 5.9492-0.66016 8.5938-1.3242v7.9336c-2.6445 0.66016-5.2891 1.3242-8.5938 1.3242v-7.9336zm82.645-27.77c3.9688-0.66016 7.9336-1.3242 11.902-2.6445v9.918c-3.9688 0.66016-7.9336 1.3242-11.902 1.9844v-9.2578zm-19.172 3.9688c3.9688-0.66016 7.9336-1.3242 11.238-1.9844v9.2578c-3.3047 0.66016-7.2734 1.3242-11.238 1.9844v-9.2578zm-17.191 3.3047c3.3047-0.66016 6.6133-1.3242 10.578-1.9844v9.2578c-3.9688 0.66016-7.2734 1.3242-10.578 1.9844v-9.2578zm-16.527 3.9688c3.3047-0.66016 6.6133-1.3242 9.918-1.9844v8.5938c-3.3047 0-6.6133 0.66016-9.918 1.3242v-7.9336zm-15.207 2.6445c2.6445-0.66016 5.9492-1.3242 9.2578-1.3242v7.9336c-3.3047 0.66016-6.6133 1.3242-9.2578 1.9844v-8.5938zm-14.547 3.3047c3.3047-0.66016 5.9492-1.3242 8.5938-1.9844v7.9336c-2.6445 0.66016-5.2891 1.3242-8.5938 1.9844v-7.9336zm63.473-25.785c3.9688-0.66016 7.9336-1.9844 11.238-2.6445v9.2578c-3.3047 0.66016-7.2734 1.3242-11.238 2.6445v-9.2578zm-17.191 3.9688c3.3047-0.66016 6.6133-1.3242 10.578-1.9844v8.5938c-3.9688 0.66016-7.2734 1.3242-10.578 1.9844v-8.5938zm-16.527 3.9688c3.3047-0.66016 6.6133-1.3242 9.918-2.6445v8.5938c-3.3047 0.66016-6.6133 1.9844-9.918 2.6445v-8.5938zm-15.207 3.3047c2.6445-0.66016 5.9492-1.3242 9.2578-1.9844v8.5938c-3.3047 0.66016-6.6133 0.66016-9.2578 1.3242v-7.9336zm-14.547 3.3047c3.3047-0.66016 5.9492-1.3242 8.5938-1.9844v7.9336c-2.6445 0.66016-5.2891 1.3242-8.5938 1.9844v-7.9336zm82.645-31.734c3.9688-1.3242 7.9336-1.9844 11.902-3.3047v9.918c-3.9688 0.66016-7.9336 1.3242-11.902 2.6445v-9.2578zm-19.172 4.6289c3.9688-0.66016 7.9336-1.9844 11.238-2.6445v9.2578c-3.3047 0.66016-7.2734 1.3242-11.238 2.6445v-9.2578zm-17.191 4.6289c3.3047-1.3242 6.6133-1.9844 10.578-2.6445v8.5938c-3.9688 0.66016-7.2734 1.9844-10.578 2.6445v-8.5938zm-31.734 7.9336c2.6445-0.66016 5.9492-1.3242 9.2578-2.6445v8.5938c-3.3047 0.66016-6.6133 1.3242-9.2578 1.9844v-7.9336zm-14.547 3.9688c3.3047-1.3242 5.9492-1.9844 8.5938-2.6445v7.9336c-2.6445 0.66016-5.2891 1.3242-8.5938 1.9844v-7.2734z" fill-rule="evenodd"/>
  <use x="70" y="569.917969" xlink:href="#t"/>
  <use x="72.425781" y="569.917969" xlink:href="#d"/>
  <use x="74.054688" y="569.917969" xlink:href="#c"/>
  <use x="76.296875" y="569.917969" xlink:href="#l"/>
  <use x="78.527344" y="569.917969" xlink:href="#b"/>
  <use x="80.109375" y="569.917969" xlink:href="#c"/>
  <use x="82.351562" y="569.917969" xlink:href="#k"/>
  <use x="85.867188" y="569.917969" xlink:href="#j"/>
  <use x="88.234375" y="569.917969" xlink:href="#i"/>
  <use x="91.539062" y="569.917969" xlink:href="#f"/>
  <use x="93.964844" y="569.917969" xlink:href="#e"/>
  <use x="96.316406" y="569.917969" xlink:href="#s"/>
  <use x="98.683594" y="569.917969" xlink:href="#e"/>
  <use x="101.035156" y="569.917969" xlink:href="#b"/>
  <use x="103.769531" y="569.917969" xlink:href="#h"/>
  <use x="106.535156" y="569.917969" xlink:href="#e"/>
  <use x="108.886719" y="569.917969" xlink:href="#r"/>
  <use x="111.253906" y="569.917969" xlink:href="#d"/>
  <use x="112.886719" y="569.917969" xlink:href="#a"/>
  <use x="115.15625" y="569.917969" xlink:href="#g"/>
  <use x="117.507812" y="569.917969" xlink:href="#a"/>
  <use x="70" y="573.222656" xlink:href="#q"/>
  <use x="71.4375" y="573.222656" xlink:href="#d"/>
  <use x="73.070312" y="573.222656" xlink:href="#a"/>
  <use x="75.339844" y="573.222656" xlink:href="#p"/>
  <use x="79.933594" y="573.222656" xlink:href="#b"/>
  <use x="81.515625" y="573.222656" xlink:href="#g"/>
  <use x="83.867188" y="573.222656" xlink:href="#c"/>
  <use x="87.261719" y="573.222656" xlink:href="#h"/>
  <use x="90.027344" y="573.222656" xlink:href="#a"/>
  <use x="92.300781" y="573.222656" xlink:href="#e"/>
  <use x="94.652344" y="573.222656" xlink:href="#o"/>
  <use x="98.15625" y="573.222656" xlink:href="#f"/>
  <use x="100.582031" y="573.222656" xlink:href="#d"/>
  <use x="102.210938" y="573.222656" xlink:href="#a"/>
  <use x="104.480469" y="573.222656" xlink:href="#n"/>
  <use x="105.613281" y="573.222656" xlink:href="#c"/>
  <use x="107.855469" y="573.222656" xlink:href="#m"/>
  <use x="109.816406" y="573.222656" xlink:href="#b"/>
 </g>
</svg>
