<?xml version="1.0" encoding="UTF-8"?>
<svg version="1.1" viewBox="0 0 700 700" xmlns="http://www.w3.org/2000/svg" fill="#cda24b" xmlns:xlink="http://www.w3.org/1999/xlink">
 <g>
  <path d="m407.68 276.08c3.3594 0 5.6016-2.2383 5.6016-5.6016v-9.5195c0-3.3594-2.2383-5.6016-5.6016-5.6016-3.3594 0-5.6016 2.2383-5.6016 5.6016v9.5195c0 3.3633 2.8008 5.6016 5.6016 5.6016z"/>
  <path d="m434.56 276.08c3.3594 0 5.6016-2.2383 5.6016-5.6016v-9.5195c0-3.3594-2.2383-5.6016-5.6016-5.6016-3.3594 0-5.6016 2.2383-5.6016 5.6016v9.5195c0.003907 3.3633 2.2422 5.6016 5.6016 5.6016z"/>
  <path d="m460.88 276.08c3.3594 0 5.6016-2.2383 5.6016-5.6016v-9.5195c0-3.3594-2.2383-5.6016-5.6016-5.6016-3.3594 0-5.6016 2.2383-5.6016 5.6016v9.5195c0.003906 3.3633 2.8008 5.6016 5.6016 5.6016z"/>
  <path d="m407.68 315.28c3.3594 0 5.6016-2.2383 5.6016-5.6016v-9.5195c0-3.3594-2.2383-5.6016-5.6016-5.6016-3.3594 0-5.6016 2.2383-5.6016 5.6016v9.5195c0 3.3594 2.8008 5.6016 5.6016 5.6016z"/>
  <path d="m434.56 315.28c3.3594 0 5.6016-2.2383 5.6016-5.6016v-9.5195c0-3.3594-2.2383-5.6016-5.6016-5.6016-3.3594 0-5.6016 2.2383-5.6016 5.6016v9.5195c0.003907 3.3594 2.2422 5.6016 5.6016 5.6016z"/>
  <path d="m460.88 315.28c3.3594 0 5.6016-2.2383 5.6016-5.6016v-9.5195c0-3.3594-2.2383-5.6016-5.6016-5.6016-3.3594 0-5.6016 2.2383-5.6016 5.6016v9.5195c0.003906 3.3594 2.8008 5.6016 5.6016 5.6016z"/>
  <path d="m407.68 354.48c3.3594 0 5.6016-2.2383 5.6016-5.6016v-9.5195c0-3.3594-2.2383-5.6016-5.6016-5.6016-3.3594 0-5.6016 2.2383-5.6016 5.6016v9.5195c0 2.8008 2.8008 5.6016 5.6016 5.6016z"/>
  <path d="m434.56 354.48c3.3594 0 5.6016-2.2383 5.6016-5.6016v-9.5195c0-3.3594-2.2383-5.6016-5.6016-5.6016-3.3594 0-5.6016 2.2383-5.6016 5.6016v9.5195c0.003907 2.8008 2.2422 5.6016 5.6016 5.6016z"/>
  <path d="m460.88 354.48c3.3594 0 5.6016-2.2383 5.6016-5.6016v-9.5195c0-3.3594-2.2383-5.6016-5.6016-5.6016-3.3594 0-5.6016 2.2383-5.6016 5.6016v9.5195c0.003906 2.8008 2.8008 5.6016 5.6016 5.6016z"/>
  <path d="m407.68 393.12c3.3594 0 5.6016-2.2383 5.6016-5.6016v-9.5195c0-3.3594-2.2383-5.6016-5.6016-5.6016-3.3594 0-5.6016 2.2383-5.6016 5.6016v9.5195c0 3.3594 2.8008 5.6016 5.6016 5.6016z"/>
  <path d="m434.56 393.12c3.3594 0 5.6016-2.2383 5.6016-5.6016v-9.5195c0-3.3594-2.2383-5.6016-5.6016-5.6016-3.3594 0-5.6016 2.2383-5.6016 5.6016v9.5195c0.003907 3.3594 2.2422 5.6016 5.6016 5.6016z"/>
  <path d="m460.88 393.12c3.3594 0 5.6016-2.2383 5.6016-5.6016v-9.5195c0-3.3594-2.2383-5.6016-5.6016-5.6016-3.3594 0-5.6016 2.2383-5.6016 5.6016v9.5195c0.003906 3.3594 2.8008 5.6016 5.6016 5.6016z"/>
  <path d="m407.68 432.32c3.3594 0 5.6016-2.2383 5.6016-5.6016v-9.5195c0-3.3594-2.2383-5.6016-5.6016-5.6016-3.3594 0-5.6016 2.2383-5.6016 5.6016v9.5195c0 2.8008 2.8008 5.6016 5.6016 5.6016z"/>
  <path d="m434.56 432.32c3.3594 0 5.6016-2.2383 5.6016-5.6016v-9.5195c0-3.3594-2.2383-5.6016-5.6016-5.6016-3.3594 0-5.6016 2.2383-5.6016 5.6016v9.5195c0.003907 2.8008 2.2422 5.6016 5.6016 5.6016z"/>
  <path d="m460.88 432.32c3.3594 0 5.6016-2.2383 5.6016-5.6016v-9.5195c0-3.3594-2.2383-5.6016-5.6016-5.6016-3.3594 0-5.6016 2.2383-5.6016 5.6016v9.5195c0.003906 2.8008 2.8008 5.6016 5.6016 5.6016z"/>
  <path d="m234.08 255.36c-3.3594 0-5.6016 2.2383-5.6016 5.6016v9.5195c0 3.3594 2.2383 5.6016 5.6016 5.6016 3.3594 0 5.6016-2.2383 5.6016-5.6016v-9.5195c0-2.8008-2.2383-5.6016-5.6016-5.6016z"/>
  <path d="m260.96 255.36c-3.3594 0-5.6016 2.2383-5.6016 5.6016v9.5195c0 3.3594 2.2383 5.6016 5.6016 5.6016 3.3594 0 5.6016-2.2383 5.6016-5.6016v-9.5195c-0.003906-2.8008-2.8008-5.6016-5.6016-5.6016z"/>
  <path d="m287.84 255.36c-3.3594 0-5.6016 2.2383-5.6016 5.6016v9.5195c0 3.3594 2.2383 5.6016 5.6016 5.6016 3.3594 0 5.6016-2.2383 5.6016-5.6016v-9.5195c0-2.8008-2.8008-5.6016-5.6016-5.6016z"/>
  <path d="m234.08 294.56c-3.3594 0-5.6016 2.2383-5.6016 5.6016v9.5195c0 3.3594 2.2383 5.6016 5.6016 5.6016 3.3594 0 5.6016-2.2383 5.6016-5.6016v-9.5195c0-3.3594-2.2383-5.6016-5.6016-5.6016z"/>
  <path d="m260.96 294.56c-3.3594 0-5.6016 2.2383-5.6016 5.6016v9.5195c0 3.3594 2.2383 5.6016 5.6016 5.6016 3.3594 0 5.6016-2.2383 5.6016-5.6016v-9.5195c-0.003906-3.3594-2.8008-5.6016-5.6016-5.6016z"/>
  <path d="m287.84 294.56c-3.3594 0-5.6016 2.2383-5.6016 5.6016v9.5195c0 3.3594 2.2383 5.6016 5.6016 5.6016 3.3594 0 5.6016-2.2383 5.6016-5.6016v-9.5195c0-3.3594-2.8008-5.6016-5.6016-5.6016z"/>
  <path d="m234.08 333.76c-3.3594 0-5.6016 2.2383-5.6016 5.6016v9.5195c0 3.3594 2.2383 5.6016 5.6016 5.6016 3.3594 0 5.6016-2.2383 5.6016-5.6016v-9.5195c0-3.3633-2.2383-5.6016-5.6016-5.6016z"/>
  <path d="m260.96 333.76c-3.3594 0-5.6016 2.2383-5.6016 5.6016v9.5195c0 3.3594 2.2383 5.6016 5.6016 5.6016 3.3594 0 5.6016-2.2383 5.6016-5.6016v-9.5195c-0.003906-3.3633-2.8008-5.6016-5.6016-5.6016z"/>
  <path d="m287.84 333.76c-3.3594 0-5.6016 2.2383-5.6016 5.6016v9.5195c0 3.3594 2.2383 5.6016 5.6016 5.6016 3.3594 0 5.6016-2.2383 5.6016-5.6016v-9.5195c0-3.3633-2.8008-5.6016-5.6016-5.6016z"/>
  <path d="m234.08 372.4c-3.3594 0-5.6016 2.2383-5.6016 5.6016v9.5195c0 3.3594 2.2383 5.6016 5.6016 5.6016 3.3594 0 5.6016-2.2383 5.6016-5.6016v-9.5195c0-2.8008-2.2383-5.6016-5.6016-5.6016z"/>
  <path d="m260.96 372.4c-3.3594 0-5.6016 2.2383-5.6016 5.6016v9.5195c0 3.3594 2.2383 5.6016 5.6016 5.6016 3.3594 0 5.6016-2.2383 5.6016-5.6016v-9.5195c-0.003906-2.8008-2.8008-5.6016-5.6016-5.6016z"/>
  <path d="m287.84 372.4c-3.3594 0-5.6016 2.2383-5.6016 5.6016v9.5195c0 3.3594 2.2383 5.6016 5.6016 5.6016 3.3594 0 5.6016-2.2383 5.6016-5.6016v-9.5195c0-2.8008-2.8008-5.6016-5.6016-5.6016z"/>
  <path d="m234.08 411.6c-3.3594 0-5.6016 2.2383-5.6016 5.6016v9.5195c0 3.3594 2.2383 5.6016 5.6016 5.6016 3.3594 0 5.6016-2.2383 5.6016-5.6016v-9.5195c0-3.3633-2.2383-5.6016-5.6016-5.6016z"/>
  <path d="m260.96 411.6c-3.3594 0-5.6016 2.2383-5.6016 5.6016v9.5195c0 3.3594 2.2383 5.6016 5.6016 5.6016 3.3594 0 5.6016-2.2383 5.6016-5.6016v-9.5195c-0.003906-3.3633-2.8008-5.6016-5.6016-5.6016z"/>
  <path d="m287.84 411.6c-3.3594 0-5.6016 2.2383-5.6016 5.6016v9.5195c0 3.3594 2.2383 5.6016 5.6016 5.6016 3.3594 0 5.6016-2.2383 5.6016-5.6016v-9.5195c0-3.3633-2.8008-5.6016-5.6016-5.6016z"/>
  <path d="m516.32 478.24c3.3594 0 5.6016-2.2383 5.6016-5.6016 0-3.3594-2.2383-5.6016-5.6016-5.6016h-16.801v-229.6c0-2.2383-1.1211-3.9219-3.3594-5.0391l-117.6-53.199v-91.836c0-3.3594-2.2383-5.6016-5.6016-5.6016l-108.08 0.003907c-3.3594 0-5.6016 2.2383-5.6016 5.6016v135.52l-58.238-0.003906c-3.3594 0-5.6016 2.2383-5.6016 5.6016v239.12h-20.719c-3.3594 0-5.6016 2.2383-5.6016 5.6016 0 3.3594 2.2383 5.6016 5.6016 5.6016l341.6-0.003907zm-28-236.88v226.24l-108.08 0.003906v-275.52zm-217.84-148.4h96.879v374.08h-41.441v-35.281h22.961c3.3594 0 5.6016-2.2383 5.6016-5.6016 0-3.3594-2.2383-5.6016-5.6016-5.6016h-22.961v-32.48h22.961c3.3594 0 5.6016-2.2383 5.6016-5.6016 0-3.3594-2.2383-5.6016-5.6016-5.6016h-22.961v-32.48h22.961c3.3594 0 5.6016-2.2383 5.6016-5.6016 0-3.3594-2.2383-5.6016-5.6016-5.6016h-22.961v-32.48h22.961c3.3594 0 5.6016-2.2383 5.6016-5.6016 0-3.3594-2.2383-5.6016-5.6016-5.6016h-22.961l0.003906-31.902h22.961c3.3594 0 5.6016-2.2383 5.6016-5.6016 0-3.3594-2.2383-5.6016-5.6016-5.6016h-22.961v-18.48c0-3.3594-2.2383-5.6016-5.6016-5.6016h-49.84zm-63.84 140.56h108.08v233.52h-108.08z"/>
  <path d="m287.84 127.12h61.602c3.3594 0 5.6016-2.2383 5.6016-5.6016 0-3.3594-2.2383-5.6016-5.6016-5.6016h-61.602c-3.3594 0-5.6016 2.2383-5.6016 5.6016 0 3.3594 2.2422 5.6016 5.6016 5.6016z"/>
  <path d="m287.84 170.24h61.602c3.3594 0 5.6016-2.2383 5.6016-5.6016 0-3.3594-2.2383-5.6016-5.6016-5.6016h-61.602c-3.3594 0-5.6016 2.2383-5.6016 5.6016s2.2422 5.6016 5.6016 5.6016z"/>
  <path d="m354.48 208.32c0-3.3594-2.2383-5.6016-5.6016-5.6016h-61.602c-3.3594 0-5.6016 2.2383-5.6016 5.6016 0 3.3594 2.2383 5.6016 5.6016 5.6016h61.602c3.3594 0 5.6016-2.2422 5.6016-5.6016z"/>
  
 </g>
</svg>
