<?xml version="1.0" encoding="UTF-8"?>
<svg width="700pt" height="700pt" version="1.1" viewBox="0 0 700 700" xmlns="http://www.w3.org/2000/svg" fill="#cda24b">
 <g>
  <path d="m568.4 492.8h-7.4219l0.003907-284.88c0-3.0898-2.5039-5.6016-5.6016-5.6016h-16.883v-135.12h4.75c3.0977 0 5.6016-2.5078 5.6016-5.6016 0-3.0898-2.5039-5.6016-5.6016-5.6016l-162.98 0.003906c-3.0977 0-5.6016 2.5078-5.6016 5.6016 0 3.0898 2.5039 5.6016 5.6016 5.6016h4.75v135.12h-16.891c-3.0977 0-5.6016 2.5078-5.6016 5.6016v284.88h-24.848v-223.29c0-3.0898-2.5039-5.6016-5.6016-5.6016h-16.883v-73.516h4.75c3.0977 0 5.6016-2.5078 5.6016-5.6016 0-3.0898-2.5039-5.6016-5.6016-5.6016l-162.98 0.003907c-3.0977 0-5.6016 2.5078-5.6016 5.6016 0 3.0898 2.5039 5.6016 5.6016 5.6016h4.75v73.516h-16.891c-3.0977 0-5.6016 2.5078-5.6016 5.6016v223.28h-7.625c-3.0977 0-5.6016 2.5078-5.6016 5.6016 0 3.0898 2.5039 5.6016 5.6016 5.6016h436.8c3.0977 0 5.6016-2.5078 5.6016-5.6016-0.003906-3.0938-2.5078-5.6016-5.6055-5.6016zm-172.18-425.6h131.08v135.12h-131.08zm-22.492 146.32h176.05v279.29h-28.984v-49.152c0-3.0898-2.5039-5.6016-5.6016-5.6016h-37.43c-3.0977 0-5.6016 2.5078-5.6016 5.6016v49.152h-20.82v-49.152c0-3.0898-2.5039-5.6016-5.6016-5.6016h-37.43c-3.0977 0-5.6016 2.5078-5.6016 5.6016v49.152h-28.992l0.003906-279.29zm135.87 279.29h-26.23v-43.551h26.23zm-69.445 0h-26.23v-43.551h26.23zm-267.23-302.4h131.08v73.516l-131.08 0.003907zm-22.492 84.719h176.05v217.68h-28.984v-49.152c0-3.0898-2.5039-5.6016-5.6016-5.6016h-37.43c-3.0977 0-5.6016 2.5078-5.6016 5.6016v49.152h-46.199l0.050782-21.066c13.621-2.4414 23.961-13.691 23.961-27.211 0-5.3555-1.6523-10.578-4.7109-15.035 0.75-2.2969 1.125-4.6719 1.125-7.1016 0-4.6797-1.4336-9.2461-4.082-13.156 0.53906-1.8359 0.8125-3.7305 0.8125-5.6602 0-11.781-10.148-21.375-22.613-21.375-12.051 0-21.973 8.9102-22.586 20.352l-0.023438 1.0234c0 1.9336 0.27344 3.8242 0.8125 5.6602-2.6602 3.9102-4.0898 8.4727-4.0898 13.156 0 2.4258 0.375 4.8008 1.125 7.0938-3.0859 4.4922-4.7109 9.6758-4.7109 15.043 0 13.461 10.246 24.691 23.781 27.195l-0.050781 21.082h-41.035zm135.87 217.68h-26.23v-43.551h26.23zm-102.45-64.965c-0.88672-1.7461-1.332-3.5781-1.332-5.4492 0-3.9102 1.8359-6.7305 3.3828-8.4062 1.5664-1.7148 1.9258-4.2188 0.88672-6.3008-0.65625-1.3086-0.99219-2.6953-0.98047-4.6016 0.29297-5.4336 5.293-9.6836 11.395-9.6836 6.293 0 11.414 4.5625 11.414 10.176 0 1.4102-0.33594 2.8008-0.99219 4.1094-1.043 2.082-0.68359 4.5859 0.88672 6.3008 2.2109 2.4023 3.3828 5.3086 3.3828 8.4062 0 1.875-0.44922 3.7109-1.3281 5.4492-1.0547 2.0664-0.71875 4.5547 0.82422 6.2773 2.6758 2.9805 4.082 6.5742 4.082 10.41 0 9.1172-8.1992 16.535-18.273 16.535-10.074 0-18.273-7.4219-18.273-16.535 0-3.207 1.0312-6.3281 2.9609-9.0117 0.34766-0.47656 0.71875-0.94141 1.1133-1.3828 1.5703-1.7266 1.9062-4.2227 0.85156-6.293z"/>
  <path d="m513.89 399.38c3.0977 0 5.6016-2.5078 5.6016-5.6016v-24.691c0-3.0898-2.5039-5.6016-5.6016-5.6016-3.0977 0-5.6016 2.5078-5.6016 5.6016v24.691c0.003906 3.0938 2.5039 5.6016 5.6016 5.6016z"/>
  <path d="m513.89 343.2c3.0977 0 5.6016-2.5078 5.6016-5.6016v-24.684c0-3.0898-2.5039-5.6016-5.6016-5.6016-3.0977 0-5.6016 2.5078-5.6016 5.6016v24.684c0.003906 3.0938 2.5039 5.6016 5.6016 5.6016z"/>
  <path d="m513.89 287.02c3.0977 0 5.6016-2.5078 5.6016-5.6016v-24.691c0-3.0898-2.5039-5.6016-5.6016-5.6016-3.0977 0-5.6016 2.5078-5.6016 5.6016v24.691c0.003906 3.0938 2.5039 5.6016 5.6016 5.6016z"/>
  <path d="m479.14 399.38c3.0977 0 5.6016-2.5078 5.6016-5.6016v-24.691c0-3.0898-2.5039-5.6016-5.6016-5.6016-3.0977 0-5.6016 2.5078-5.6016 5.6016v24.691c0 3.0938 2.5039 5.6016 5.6016 5.6016z"/>
  <path d="m479.14 343.2c3.0977 0 5.6016-2.5078 5.6016-5.6016v-24.684c0-3.0898-2.5039-5.6016-5.6016-5.6016-3.0977 0-5.6016 2.5078-5.6016 5.6016v24.684c0 3.0938 2.5039 5.6016 5.6016 5.6016z"/>
  <path d="m479.14 287.02c3.0977 0 5.6016-2.5078 5.6016-5.6016v-24.691c0-3.0898-2.5039-5.6016-5.6016-5.6016-3.0977 0-5.6016 2.5078-5.6016 5.6016v24.691c0 3.0938 2.5039 5.6016 5.6016 5.6016z"/>
  <path d="m428.05 103.72c-3.0977 0-5.6016 2.5078-5.6016 5.6016v19.336c0 3.0898 2.5039 5.6016 5.6016 5.6016 3.0977 0 5.6016-2.5078 5.6016-5.6016v-19.336c-0.003906-3.0938-2.5117-5.6016-5.6016-5.6016z"/>
  <path d="m461.75 103.72c-3.0977 0-5.6016 2.5078-5.6016 5.6016v19.336c0 3.0898 2.5039 5.6016 5.6016 5.6016s5.6016-2.5078 5.6016-5.6016v-19.336c0-3.0938-2.5039-5.6016-5.6016-5.6016z"/>
  <path d="m495.45 103.72c-3.0977 0-5.6016 2.5078-5.6016 5.6016v19.336c0 3.0898 2.5039 5.6016 5.6016 5.6016s5.6016-2.5078 5.6016-5.6016v-19.336c0-3.0938-2.5078-5.6016-5.6016-5.6016z"/>
  <path d="m428.05 151.34c-3.0977 0-5.6016 2.5078-5.6016 5.6016v19.336c0 3.0898 2.5039 5.6016 5.6016 5.6016 3.0977 0 5.6016-2.5078 5.6016-5.6016v-19.336c-0.003906-3.0938-2.5117-5.6016-5.6016-5.6016z"/>
  <path d="m461.75 151.34c-3.0977 0-5.6016 2.5078-5.6016 5.6016v19.336c0 3.0898 2.5039 5.6016 5.6016 5.6016s5.6016-2.5078 5.6016-5.6016v-19.336c0-3.0938-2.5039-5.6016-5.6016-5.6016z"/>
  <path d="m495.45 151.34c-3.0977 0-5.6016 2.5078-5.6016 5.6016v19.336c0 3.0898 2.5039 5.6016 5.6016 5.6016s5.6016-2.5078 5.6016-5.6016v-19.336c0-3.0938-2.5078-5.6016-5.6016-5.6016z"/>
  <path d="m444.38 399.38c3.0977 0 5.6016-2.5078 5.6016-5.6016v-24.691c0-3.0898-2.5039-5.6016-5.6016-5.6016s-5.6016 2.5078-5.6016 5.6016v24.691c0.003906 3.0938 2.5078 5.6016 5.6016 5.6016z"/>
  <path d="m444.38 343.2c3.0977 0 5.6016-2.5078 5.6016-5.6016v-24.684c0-3.0898-2.5039-5.6016-5.6016-5.6016s-5.6016 2.5078-5.6016 5.6016v24.684c0.003906 3.0938 2.5078 5.6016 5.6016 5.6016z"/>
  <path d="m444.38 287.02c3.0977 0 5.6016-2.5078 5.6016-5.6016v-24.691c0-3.0898-2.5039-5.6016-5.6016-5.6016s-5.6016 2.5078-5.6016 5.6016v24.691c0.003906 3.0938 2.5078 5.6016 5.6016 5.6016z"/>
  <path d="m409.62 399.38c3.0977 0 5.6016-2.5078 5.6016-5.6016v-24.691c0-3.0898-2.5039-5.6016-5.6016-5.6016-3.0977 0-5.6016 2.5078-5.6016 5.6016v24.691c0.003906 3.0938 2.5039 5.6016 5.6016 5.6016z"/>
  <path d="m409.62 343.2c3.0977 0 5.6016-2.5078 5.6016-5.6016v-24.684c0-3.0898-2.5039-5.6016-5.6016-5.6016-3.0977 0-5.6016 2.5078-5.6016 5.6016v24.684c0.003906 3.0938 2.5039 5.6016 5.6016 5.6016z"/>
  <path d="m409.62 287.02c3.0977 0 5.6016-2.5078 5.6016-5.6016v-24.691c0-3.0898-2.5039-5.6016-5.6016-5.6016-3.0977 0-5.6016 2.5078-5.6016 5.6016v24.691c0.003906 3.0938 2.5039 5.6016 5.6016 5.6016z"/>
  <path d="m290.59 399.38c3.0977 0 5.6016-2.5078 5.6016-5.6016v-24.691c0-3.0898-2.5039-5.6016-5.6016-5.6016s-5.6016 2.5078-5.6016 5.6016v24.691c0.003906 3.0938 2.5078 5.6016 5.6016 5.6016z"/>
  <path d="m290.59 343.2c3.0977 0 5.6016-2.5078 5.6016-5.6016v-24.684c0-3.0898-2.5039-5.6016-5.6016-5.6016s-5.6016 2.5078-5.6016 5.6016v24.684c0.003906 3.0938 2.5078 5.6016 5.6016 5.6016z"/>
  <path d="m255.84 399.38c3.0977 0 5.6016-2.5078 5.6016-5.6016v-24.691c0-3.0898-2.5039-5.6016-5.6016-5.6016-3.0977 0-5.6016 2.5078-5.6016 5.6016v24.691c0 3.0938 2.5039 5.6016 5.6016 5.6016z"/>
  <path d="m255.84 343.2c3.0977 0 5.6016-2.5078 5.6016-5.6016v-24.684c0-3.0898-2.5039-5.6016-5.6016-5.6016-3.0977 0-5.6016 2.5078-5.6016 5.6016v24.684c0 3.0938 2.5039 5.6016 5.6016 5.6016z"/>
  <path d="m204.75 212.93c-3.0977 0-5.6016 2.5078-5.6016 5.6016v19.336c0 3.0898 2.5039 5.6016 5.6016 5.6016s5.6016-2.5078 5.6016-5.6016v-19.336c0-3.0938-2.5039-5.6016-5.6016-5.6016z"/>
  <path d="m238.45 212.93c-3.0977 0-5.6016 2.5078-5.6016 5.6016v19.336c0 3.0898 2.5039 5.6016 5.6016 5.6016s5.6016-2.5078 5.6016-5.6016v-19.336c0-3.0938-2.5039-5.6016-5.6016-5.6016z"/>
  <path d="m272.16 212.93c-3.0977 0-5.6016 2.5078-5.6016 5.6016v19.336c0 3.0898 2.5039 5.6016 5.6016 5.6016s5.6016-2.5078 5.6016-5.6016v-19.336c-0.003906-3.0938-2.5117-5.6016-5.6016-5.6016z"/>
  <path d="m221.08 343.2c3.0977 0 5.6016-2.5078 5.6016-5.6016v-24.684c0-3.0898-2.5039-5.6016-5.6016-5.6016s-5.6016 2.5078-5.6016 5.6016v24.684c0 3.0938 2.5039 5.6016 5.6016 5.6016z"/>
  <path d="m186.32 343.2c3.0977 0 5.6016-2.5078 5.6016-5.6016v-24.684c0-3.0898-2.5039-5.6016-5.6016-5.6016s-5.6016 2.5078-5.6016 5.6016v24.684c0.003906 3.0938 2.5078 5.6016 5.6016 5.6016z"/>
 </g>
</svg>
