<?xml version="1.0" encoding="UTF-8"?>
<svg width="700pt" height="700pt" version="1.1" viewBox="0 0 700 700" fill="#cda24b" xmlns="http://www.w3.org/2000/svg">
 <g>
  <path d="m589.21 0.44141h-304.39c-5.1562 0-9.332 4.1758-9.332 9.332v177.75l-151.78 0.003906c-5.1562 0-9.332 4.1758-9.332 9.332l-0.003906 141.47c0 5.1562 4.1992 9.332 9.332 9.332 5.1328 0 9.332-4.1758 9.332-9.332l0.003906-132.16h220.36v334.71h-68.602l-118.95 0.003906v-38.102h0.88672c0.74609 0 1.4922-0.09375 2.2383-0.28125 13.137-3.2188 23.707-9.707 31.453-19.227 11.34-14 14.07-30.496 8.2617-50.469-6.2539-21.582-19.203-41.184-40.832-61.648l-5.2734-4.668c-3.5938-3.125-9.0078-3.1016-12.508 0.16406-22.727 21.117-36.91 41.207-44.613 63.305-4.293 12.273-5.1562 23.125-2.6133 33.109 5.0859 20.137 19.297 33.738 43.375 39.645h0.93359v38.172h-23.445c-5.1562 0-9.332 4.1758-9.332 9.332s4.1992 9.332 9.332 9.332h465.5c5.1562 0 9.332-4.1758 9.332-9.332l-0.003906-540.47c0.023437-5.1328-4.1758-9.3125-9.332-9.3125zm-468.28 458.06c-1.6094-6.418-0.93359-13.535 2.1719-22.375 5.9492-17.102 16.684-33.086 33.531-49.84 18.129 17.5 29.004 33.996 34.16 51.73 4.0352 14.047 2.543 24.359-4.8516 33.508-4.9219 6.0664-11.527 10.125-20.066 12.461v-40.273c0-5.1562-4.1992-9.332-9.332-9.332-5.1328 0-9.332 4.1758-9.332 9.332v40.109c-14.5-4.0859-22.945-12.113-26.281-25.32zm310.98 82.414v-135.87h87.57v135.87zm147.96 0h-41.695v-145.2c0-5.1562-4.1992-9.332-9.332-9.332h-106.26c-5.1562 0-9.332 4.1758-9.332 9.332v145.2h-41.137v-344.05c0-5.1562-4.1992-9.332-9.332-9.332h-68.602v-27.254h136.59c5.1562 0 9.332-4.1758 9.332-9.332s-4.1992-9.332-9.332-9.332l-136.62-0.003906v-28h159.93c5.1562 0 9.332-4.1758 9.332-9.332s-4.1992-9.332-9.332-9.332l-159.93-0.003906v-28h206.59c5.1562 0 9.332-4.1758 9.332-9.332s-4.1992-9.332-9.332-9.332h-206.59v-29.168h285.71z"/>
  <path d="m173.11 267.96h31.289c5.1562 0 9.332-4.1758 9.332-9.332s-4.1992-9.332-9.332-9.332l-31.289-0.003906c-5.1562 0-9.332 4.1758-9.332 9.332 0 5.1602 4.1992 9.3359 9.332 9.3359z"/>
  <path d="m279.77 267.96h31.289c5.1562 0 9.332-4.1758 9.332-9.332s-4.1992-9.332-9.332-9.332l-31.289-0.003906c-5.1562 0-9.332 4.1758-9.332 9.332 0 5.1602 4.1758 9.3359 9.332 9.3359z"/>
  <path d="m173.11 329.7h31.289c5.1562 0 9.332-4.1758 9.332-9.332s-4.1992-9.332-9.332-9.332h-31.289c-5.1562 0-9.332 4.1758-9.332 9.332s4.1992 9.332 9.332 9.332z"/>
  <path d="m279.77 329.7h31.289c5.1562 0 9.332-4.1758 9.332-9.332s-4.1992-9.332-9.332-9.332h-31.289c-5.1562 0-9.332 4.1758-9.332 9.332s4.1758 9.332 9.332 9.332z"/>
  <path d="m279.77 391.44h31.289c5.1562 0 9.332-4.1758 9.332-9.332s-4.1992-9.332-9.332-9.332l-31.289-0.003906c-5.1562 0-9.332 4.1758-9.332 9.332s4.1758 9.3359 9.332 9.3359z"/>
  <path d="m279.77 463.35h31.289c5.1562 0 9.332-4.1758 9.332-9.332s-4.1992-9.332-9.332-9.332h-31.289c-5.1562 0-9.332 4.1758-9.332 9.332s4.1758 9.332 9.332 9.332z"/>
 </g>
</svg>
