<?xml version="1.0" encoding="UTF-8"?>
<svg width="700pt" height="700pt" version="1.1" viewBox="0 0 800 800" fill="#cda24b" xmlns="http://www.w3.org/2000/svg" >
 <g>
  <path d="m481.25 525v-411.25c0-2.3203-0.92188-4.5469-2.5625-6.1875s-3.8672-2.5625-6.1875-2.5625h-61.25v-78.75c0-2.3203-0.92188-4.5469-2.5625-6.1875s-3.8672-2.5625-6.1875-2.5625h-105c-4.832 0-8.75 3.918-8.75 8.75v78.75h-61.25c-4.832 0-8.75 3.918-8.75 8.75v411.25h-35v17.5h332.5v-17.5zm-210-43.75v43.75h-35v-402.5h52.5v350h-8.75c-4.832 0-8.75 3.918-8.75 8.75zm43.75 43.75h-26.25v-35h26.25zm52.5 0h-35v-35h35zm-61.25-52.5v-437.5h87.5v437.5zm105 52.5h-26.25v-35h26.25zm52.5 0h-35v-43.75c0-2.3203-0.92188-4.5469-2.5625-6.1875s-3.8672-2.5625-6.1875-2.5625h-8.75v-350h52.5z"/>
  <path d="m323.75 52.5h17.5v402.5h-17.5z"/>
  <path d="m358.75 52.5h17.5v402.5h-17.5z"/>
  <path d="m428.75 140h17.5v17.5h-17.5z"/>
  <path d="m428.75 175h17.5v17.5h-17.5z"/>
  <path d="m428.75 210h17.5v17.5h-17.5z"/>
  <path d="m428.75 245h17.5v17.5h-17.5z"/>
  <path d="m428.75 280h17.5v17.5h-17.5z"/>
  <path d="m428.75 315h17.5v17.5h-17.5z"/>
  <path d="m428.75 350h17.5v17.5h-17.5z"/>
  <path d="m428.75 385h17.5v17.5h-17.5z"/>
  <path d="m428.75 420h17.5v17.5h-17.5z"/>
  <path d="m428.75 455h17.5v17.5h-17.5z"/>
  <path d="m253.75 140h17.5v17.5h-17.5z"/>
  <path d="m253.75 175h17.5v17.5h-17.5z"/>
  <path d="m253.75 210h17.5v17.5h-17.5z"/>
  <path d="m253.75 245h17.5v17.5h-17.5z"/>
  <path d="m253.75 280h17.5v17.5h-17.5z"/>
  <path d="m253.75 315h17.5v17.5h-17.5z"/>
  <path d="m253.75 350h17.5v17.5h-17.5z"/>
  <path d="m253.75 385h17.5v17.5h-17.5z"/>
  <path d="m253.75 420h17.5v17.5h-17.5z"/>
  <path d="m253.75 455h17.5v17.5h-17.5z"/>
 </g>
</svg>
