<?xml version="1.0" encoding="UTF-8"?>
<svg className="fill-primary" fill="#cda24b" version="1.1" viewBox="0 0 700 700" xmlns="http://www.w3.org/2000/svg" >

                                    <g>
                                        <path d="m344.39 358.34-22.758-13.145v6.1328l22.758 13.148z" />
                                        <path d="m250.54 264.66v6.1367l22.777 13.148v-6.1406z" />
                                        <path d="m284.52 250.9 25.91 14.965v-6.1445l-12.957-7.4805-12.953-7.4766z" />
                                        <path d="m344.4 318.84-22.77-13.148v6.1406l22.77 13.141z" />
                                        <path d="m273.32 356.82-22.781-13.16v6.1367l22.781 13.16z" />
                                        <path d="m310.44 384.37v-6.125l-25.918-14.965v6.1367z" />
                                        <path d="m310.43 344.86v-6.125l-25.91-14.965v6.1367l4.9961 2.8906z" />
                                        <path d="m344.39 397.85-22.766-13.148v6.1367l22.766 13.148z" />
                                        <path d="m250.54 304.16v6.1367l22.777 13.148v-6.1367z" />
                                        <path d="m250.54 231.29 22.777 13.148v-6.1445l-22.777-13.148z" />
                                        <path d="m344.4 279.34-22.77-13.148v6.1406l22.77 13.145z" />
                                        <path d="m355.61 324.97 22.766-13.141v-6.1406l-22.766 13.148z" />
                                        <path d="m449.46 270.79v-6.1367l-22.777 13.145v6.1406z" />
                                        <path d="m389.57 344.86 25.906-14.953v-6.1367l-16.184 9.3516-9.7227 5.6133z" />
                                        <path d="m449.46 310.3v-6.1367l-22.777 13.148v6.1367z" />
                                        <path d="m449.46 231.29v-6.1328l-22.777 13.148v6.1328z" />
                                        <path d="m415.48 290.4v-6.125l-8.1797 4.7148-17.738 10.242v6.1328z" />
                                        <path d="m449.46 191.79v-6.1328l-22.777 13.145v6.1328z" />
                                        <path d="m355.61 384.91 25.547-14.738 0.011718-0.011719 37.117-21.441 0.039062-0.007812 31.141-17.98v-7.5039l-93.855 54.191z" />
                                        <path d="m344.4 200.34-22.77-13.148v6.1328l22.77 13.141z" />
                                        <path d="m310.43 463.38v-6.1406l-25.91-14.957v6.1328z" />
                                        <path d="m344.4 166.98v-6.1445l-22.762-13.137v6.1367z" />
                                        <path d="m273.32 435.81-22.781-13.152v6.1445l22.781 13.148z" />
                                        <path d="m355.61 147.89 42.504-24.531 20.172-11.656 0.03125-0.007812 31.148-17.984v-8.3438l-93.855 54.188z" />
                                        <path d="m349.63 129.64 94.199-53.988-11.246-6.4922c-0.4375 1.25-1.2773 2.3398-2.4531 3.0234l-77.328 44.633c-0.86719 0.5-1.832 0.75-2.8008 0.75s-1.9375-0.24609-2.8008-0.75l-77.332-44.633c-1.1602-0.67188-1.9805-1.7344-2.4297-2.9531l-11.266 6.457z" />
                                        <path d="m278.27 64.098 66.129 38.168v-5.457l-66.129-38.176z" />
                                        <path d="m460.66 453.3c0 2-1.0625 3.8516-2.8008 4.8438l-105.05 60.66c-0.86328 0.50391-1.832 0.75781-2.8008 0.75781l-0.003906-0.003906h-0.003906c-0.96875 0-1.9375-0.25391-2.8008-0.75781l-105.05-60.66c-1.7344-0.99609-2.8008-2.8438-2.8008-4.8438v-36.27l-45.102 25.855 155.76 89.93 155.78-89.941-45.125-26.051v36.48z" />
                                        <path d="m511.39 452.58-155.78 89.93v3.8477l155.78-89.926z" />
                                        <path d="m355.61 364.48 22.758-13.137 0.007813-6.1445-22.766 13.133z" />
                                        <path d="m344.39 542.51-155.78-89.941v3.8516l155.78 89.949z" />
                                        <path d="m281.7 111.7 0.03125 0.011719 37.109 21.426 0.011718 0.003906 25.551 14.758v-8.3438l-37.148-21.449-56.707-32.73v8.3359z" />
                                        <path d="m250.54 146.16v6.1289l22.777 13.148 0.003907-6.1289z" />
                                        <path d="m310.17 226.21 0.26172 0.15234v-6.1328l-12.957-7.4844-12.953-7.4805v6.1367z" />
                                        <path d="m344.4 245.97v-6.1367l-22.77-13.148v6.1367z" />
                                        <path d="m344.39 476.84-22.766-13.133v6.1328l22.766 13.148z" />
                                        <path d="m310.44 186.86v-6.125l-25.918-14.965v6.1328z" />
                                        <path d="m310.43 423.87v-6.1328l-25.91-14.965v6.1445l1.5156 0.87891z" />
                                        <path d="m250.54 383.16v6.1367l22.777 13.145v-6.1328z" />
                                        <path d="m344.39 416.91-93.855-54.184v7.5039l44.801 25.855 23.492 13.562 0.007813 0.011718 25.555 14.742z" />
                                        <path d="m344.39 437.35-22.758-13.148v6.1484l22.758 13.145z" />
                                        <path d="m297.47 291.75-12.953-7.4766v6.125l25.91 14.965v-6.1328z" />
                                        <path d="m449.46 422.67-22.777 13.141v6.1406l22.777-13.148z" />
                                        <path d="m355.61 166.98 22.758-13.145 0.007813-6.1445-22.766 13.145z" />
                                        <path d="m355.61 187.4 25.547-14.75 0.011718-0.003906 37.109-21.43 0.046874-0.019531 31.141-17.977v-7.5039l-93.855 54.188z" />
                                        <path d="m300.27 280.43 18.559 10.715 0.007813 0.011719 25.559 14.754v-7.5039l-93.855-54.184v7.4961z" />
                                        <path d="m389.57 147.36 10.102-5.8359 15.809-9.125v-6.1406l-25.91 14.961z" />
                                        <path d="m449.46 402.23-25.574 14.766-0.007813 0.011718-2.8594 1.6523-65.414 37.766v7.5039l25.535-14.746 0.027344-0.03125 32.965-19.02 35.328-20.398z" />
                                        <path d="m402.53 455.89 12.953-7.4805v-6.1328l-25.91 14.957v6.1289z" />
                                        <path d="m281.7 348.72h0.015625l37.117 21.43 0.023437 0.023437 25.535 14.738v-7.4922l-65.414-37.777-2.8594-1.6523h-0.007813l-25.574-14.762v7.5039z" />
                                        <path d="m281.71 309.23h0.003906l5.4727 3.1602 57.203 33.02v-7.4922l-31.148-17.992h-0.015625l-37.109-21.426-0.011719-0.011719-25.57-14.762v7.5z" />
                                        <path d="m378.37 463.71-22.766 13.145v6.125l22.758-13.137z" />
                                        <path d="m449.46 112.79v-6.1367l-22.777 13.148v6.1367z" />
                                        <path d="m355.6 102.27 66.129-38.168v-5.4531l-49.598 28.621-16.531 9.543z" />
                                        <path d="m449.46 441.73-93.855 54.184v8.3438l93.855-54.195z" />
                                        <path d="m344.39 495.92-93.855-54.184v8.332l93.855 54.195z" />
                                        <path d="m284.18 49.105 65.828 37.996 65.848-38-65.582-35.473z" />
                                        <path d="m281.71 190.71h0.003906l18.555 10.711 44.125 25.477v-7.5l-31.164-17.992-0.003906-0.007812-18.559-10.711-44.129-25.473v7.5039z" />
                                        <path d="m281.7 427.72h0.015625l37.113 21.426 0.007813 0.011718 25.555 14.754v-7.4922l-65.414-37.766-2.8594-1.6523-0.007813-0.011718-25.574-14.766v7.5039z" />
                                        <path d="m250.54 133.22 31.16 17.988 0.023437 0.011719 37.109 21.43 25.562 14.754v-7.4922l-62.109-35.863-6.168-3.5664h-0.007813l-25.57-14.762z" />
                                        <path d="m250.54 112.79 22.777 13.148 0.003907-6.1328-22.781-13.148z" />
                                        <path d="m288.6 134.76 21.836 12.602v-6.1328l-25.918-14.965v6.1406z" />
                                        <path d="m378.37 384.7-22.766 13.137v6.1367l22.766-13.148z" />
                                        <path d="m355.61 245.97 22.758-13.137 0.007813-6.1367-22.766 13.141z" />
                                        <path d="m449.46 343.67-22.781 13.148v6.125l22.781-13.148z" />
                                        <path d="m389.83 226.21 25.648-14.809v-6.1289l-25.91 14.957v6.1328z" />
                                        <path d="m389.56 378.24v6.125l15.562-8.9805 10.355-5.9727v-6.1367z" />
                                        <path d="m355.61 266.4 61.539-35.527 1.1367-0.66016 31.18-17.996v-7.5039l-93.855 54.191z" />
                                        <path d="m355.61 305.91 25.535-14.742 0.023437-0.023438 25.648-14.801 42.648-24.625v-7.5039l-93.855 54.191z" />
                                        <path d="m423.88 298.5-37.109 21.426h-0.015625l-31.148 17.992v7.4922l40.41-23.328 22.266-12.852 0.015625-0.011718 31.164-17.98v-7.5117l-25.57 14.762z" />
                                        <path d="m389.57 259.73v6.1328l25.906-14.957v-6.1328l-13.871 8.0156z" />
                                        <path d="m355.61 285.48 22.758-13.145 0.007813-6.1367-22.766 13.145z" />
                                        <path d="m449.46 362.73-25.582 14.766-68.273 39.418v7.4922l40.41-23.316 22.266-12.863h0.015625l31.164-17.992z" />
                                        <path d="m355.61 206.47 22.766-13.148v-6.1289l-22.766 13.141z" />
                                        <path d="m403.46 178.84 12.016-6.9414v-6.1289l-25.918 14.961v6.1289z" />
                                        <path d="m250.54 191.79 22.777 13.145v-6.1328l-22.777-13.148z" />
                                        <path d="m378.37 424.2-22.766 13.148v6.1445l22.758-13.145z" />
                                        <path d="m426.68 165.43 22.777-13.148v-6.125l-22.781 13.148z" />
                                        <path d="m389.57 417.74v6.1328l24.395-14.074 1.5156-0.87891v-6.1328z" />
                                        <path d="m449.46 383.18-22.777 13.141v6.1289l22.777-13.145z" />
                                        <path d="m250.54 212.22 49.73 28.711 18.559 10.711 0.003907 0.007813 25.562 14.762v-7.5039l-31.168-17.996-1.1406-0.66016-61.547-35.531z" />
                                        <path d="m423.88 179.98-18.551 10.711-49.723 28.707v7.5l25.559-14.758 0.003907-0.003906 37.113-21.426 0.027344-0.011719 31.152-17.98v-7.5117l-25.57 14.762z" />

                                    </g>
                                </svg>
